<svg width="20" height="25" viewBox="0 0 20 25" fill="none" xmlns="http://www.w3.org/2000/svg">
<path d="M14.2186 5.75C14.2186 6.86888 13.7741 7.94194 12.983 8.73311C12.1918 9.52428 11.1187 9.96875 9.99985 9.96875C8.88097 9.96875 7.80791 9.52428 7.01674 8.73311C6.22558 7.94194 5.7811 6.86888 5.7811 5.75C5.7811 4.63112 6.22558 3.55806 7.01674 2.76689C7.80791 1.97572 8.88097 1.53125 9.99985 1.53125C11.1187 1.53125 12.1918 1.97572 12.983 2.76689C13.7741 3.55806 14.2186 4.63112 14.2186 5.75ZM1.56348 21.6328C1.59963 19.4191 2.50436 17.3084 4.08255 15.7558C5.66075 14.2032 7.78595 13.333 9.99985 13.333C12.2138 13.333 14.339 14.2032 15.9172 15.7558C17.4953 17.3084 18.4001 19.4191 18.4362 21.6328C15.7895 22.8464 12.9115 23.4727 9.99985 23.4688C6.98935 23.4688 4.13185 22.8118 1.56348 21.6328Z" class="stroke-current" fill="none" stroke-width="1.5" stroke-linecap="round" stroke-linejoin="round"/>
</svg>
