<svg width="20" height="22" viewBox="0 0 20 22" fill="none" xmlns="http://www.w3.org/2000/svg">
<path d="M10.0112 10.9365C7.29346 10.9365 5.09229 8.55566 5.09229 5.62451C5.09229 2.73828 7.30469 0.402344 10.0112 0.402344C12.729 0.402344 14.9189 2.70459 14.9189 5.60205C14.9189 8.54443 12.7178 10.9365 10.0112 10.9365ZM10.0112 8.99365C11.5723 8.99365 12.8862 7.52246 12.8862 5.60205C12.8862 3.73779 11.5835 2.34521 10.0112 2.34521C8.43896 2.34521 7.125 3.76025 7.125 5.62451C7.125 7.53369 8.4502 8.99365 10.0112 8.99365ZM3.00342 21.3809C1.06055 21.3809 0.128418 20.7632 0.128418 19.4492C0.128418 16.3833 3.96924 12.2505 10 12.2505C16.0308 12.2505 19.8716 16.3833 19.8716 19.4492C19.8716 20.7632 18.9395 21.3809 17.0078 21.3809H3.00342ZM2.62158 19.438H17.3784C17.6367 19.438 17.749 19.3594 17.749 19.146C17.749 17.4277 14.9639 14.1934 10 14.1934C5.03613 14.1934 2.26221 17.4277 2.26221 19.146C2.26221 19.3594 2.36328 19.438 2.62158 19.438Z" class="fill-current"/>
</svg>
