<svg width="22" height="24" viewBox="0 0 22 24" fill="none" xmlns="http://www.w3.org/2000/svg">
<path d="M0.106445 17.9673C0.106445 16.7769 1.20703 15.7549 2.21777 14.7666C3.01514 13.9917 3.19482 12.4419 3.34082 10.9033C3.48682 6.64697 4.72217 3.80566 7.65332 2.73877C8.08008 1.25635 9.32666 0.12207 11 0.12207C12.6733 0.12207 13.9199 1.25635 14.3467 2.73877C17.2778 3.80566 18.5132 6.64697 18.6592 10.9033C18.8052 12.4419 18.9961 13.9917 19.7822 14.7666C20.8042 15.7549 21.8936 16.7769 21.8936 17.9673C21.8936 18.9106 21.186 19.5508 20.0181 19.5508H15.4023C15.3013 21.707 13.5493 23.6611 11 23.6611C8.45068 23.6611 6.69873 21.6958 6.59766 19.5508H1.98193C0.825195 19.5508 0.106445 18.9106 0.106445 17.9673ZM2.79053 17.4956H19.187V17.3608C18.9062 17.0352 18.2773 16.4399 17.7158 15.7998C16.9521 14.9126 16.5815 13.3066 16.4692 11.1729C16.3457 6.61328 14.9419 5.09717 13.1338 4.60303C12.853 4.53564 12.6958 4.40088 12.6733 4.09766C12.6284 2.95215 11.9883 2.18848 11 2.18848C10.0117 2.18848 9.38281 2.95215 9.32666 4.09766C9.3042 4.40088 9.14697 4.53564 8.87744 4.60303C7.05811 5.09717 5.66553 6.61328 5.53076 11.1729C5.41846 13.3066 5.05908 14.9126 4.28418 15.7998C3.73389 16.4399 3.08252 17.0352 2.79053 17.3608V17.4956ZM8.72021 19.5508C8.81006 20.9546 9.73096 21.8643 11 21.8643C12.2803 21.8643 13.2012 20.9546 13.2798 19.5508H8.72021Z" class="fill-current"/>
</svg>
