<svg width="28" height="27" viewBox="0 0 28 27" fill="none" xmlns="http://www.w3.org/2000/svg">
<path d="M17.2145 19.2173C19.3106 18.9691 21.3701 18.4744 23.3503 17.7435C21.6733 15.8859 20.7467 13.4713 20.7504 10.9688V10.125C20.7504 8.33479 20.0393 6.6179 18.7734 5.35203C17.5075 4.08616 15.7906 3.375 14.0004 3.375C12.2102 3.375 10.4933 4.08616 9.22744 5.35203C7.96157 6.6179 7.25041 8.33479 7.25041 10.125V10.9688C7.25381 13.4715 6.32677 15.8861 4.64941 17.7435C6.59904 18.4635 8.65441 18.9641 10.7863 19.2173M17.2145 19.2173C15.0793 19.4705 12.9216 19.4705 10.7863 19.2173M17.2145 19.2173C17.3767 19.7233 17.417 20.2606 17.3322 20.7852C17.2474 21.3098 17.04 21.807 16.7267 22.2363C16.4135 22.6656 16.0033 23.0148 15.5295 23.2556C15.0558 23.4963 14.5318 23.6218 14.0004 23.6218C13.469 23.6218 12.9451 23.4963 12.4713 23.2556C11.9976 23.0148 11.5874 22.6656 11.2741 22.2363C10.9609 21.807 10.7534 21.3098 10.6686 20.7852C10.5839 20.2606 10.6242 19.7233 10.7863 19.2173" class="stroke-current" stroke-width="1.5" fill="none" stroke-linecap="round" stroke-linejoin="round"/>
</svg>
