<svg width="56" height="56" viewBox="0 0 56 56" fill="none" xmlns="http://www.w3.org/2000/svg">
<g id="Interface essential/Bell">
<path id="Icon" fill-rule="evenodd" clip-rule="evenodd" d="M49.2487 36.1201C48.212 35.2334 47.6152 33.9375 47.6153 32.5734V21.3267C47.6153 12.1101 39.262 4.66675 28.9487 4.66675C18.6353 4.66675 10.282 12.1101 10.282 21.3267V32.5734C10.2821 33.9375 9.6853 35.2334 8.64866 36.1201C5.12533 39.2701 7.62199 44.6367 12.6153 44.6367H21.482C22.6133 47.7877 25.6008 49.8893 28.9487 49.8893C32.2965 49.8893 35.284 47.7877 36.4153 44.6367H45.282C50.2753 44.6367 52.772 39.2701 49.2487 36.1201ZM28.9487 46.3867C27.5598 46.3815 26.2511 45.7358 25.402 44.6367H32.402C31.5799 45.7184 30.3071 46.3634 28.9487 46.3867ZM45.3053 41.1367C46.1536 41.2136 46.9613 40.7587 47.3353 39.9934C47.5169 39.5324 47.3516 39.0072 46.9387 38.7334C45.1806 37.1652 44.1642 34.9291 44.1387 32.5734V21.3267C44.1387 14.0701 37.3253 8.16675 28.972 8.16675C20.6187 8.16675 13.8053 14.0701 13.8053 21.3267V32.5734C13.7797 34.9291 12.7634 37.1652 11.0053 38.7334C10.5837 39.0003 10.4082 39.527 10.5853 39.9934C10.9593 40.7587 11.767 41.2136 12.6153 41.1367H45.3053Z" fill="#A2A2A2"/>
</g>
</svg>
