<svg xmlns="http://www.w3.org/2000/svg" xmlns:xlink="http://www.w3.org/1999/xlink" viewBox="0,0,256,256" width="24px" height="24px" fill-rule="nonzero"><g fill="#fffdfd" fill-rule="nonzero" stroke="none" stroke-width="1" stroke-linecap="butt" stroke-linejoin="miter" stroke-miterlimit="10" stroke-dasharray="" stroke-dashoffset="0" font-family="none" font-weight="none" font-size="none" text-anchor="none" style="mix-blend-mode: normal"><g transform="scale(10.66667,10.66667)"><path d="M21.31,2.331c-2.636,0 -6.671,3.82 -9.31,7.815c-2.639,-3.994 -6.674,-7.815 -9.31,-7.815c-1.69,0 -1.69,1.767 -1.69,2.616c0,0.551 0.335,4.912 0.577,5.81c0.435,1.622 1.504,3.13 3.108,3.948c-0.552,0.452 -0.949,0.984 -1.149,1.586c-0.227,0.68 -0.388,2.047 1.08,3.562c1.174,1.211 2.256,1.8 3.31,1.8c1.703,0 3.166,-1.91 4.075,-3.458c0.909,1.548 2.372,3.458 4.075,3.458c1.054,0 2.136,-0.589 3.31,-1.8c1.468,-1.514 1.306,-2.881 1.08,-3.562c-0.201,-0.602 -0.598,-1.134 -1.149,-1.586c1.604,-0.818 2.674,-2.326 3.108,-3.948c0.24,-0.898 0.575,-5.258 0.575,-5.81c0,-0.849 0,-2.616 -1.69,-2.616zM20.492,10.239c-0.44,1.64 -1.885,3.376 -4.492,3.044v2.084c1.613,0.36 2.395,1.042 2.567,1.558c0.185,0.553 -0.234,1.141 -0.619,1.537c-1.004,1.037 -1.605,1.191 -1.874,1.191c-0.763,0 -2.114,-1.852 -2.972,-3.653h-1.087l-0.015,0.007l-0.015,-0.007h-1.087c-0.859,1.801 -2.209,3.653 -2.972,3.653c-0.269,0 -0.869,-0.155 -1.874,-1.191c-0.384,-0.396 -0.803,-0.984 -0.619,-1.537c0.172,-0.516 0.954,-1.198 2.567,-1.558v-2.084c-2.607,0.332 -4.052,-1.404 -4.492,-3.044c-0.154,-0.573 -0.508,-4.626 -0.508,-5.292c0,-0.26 0.006,-0.445 0.016,-0.577c1.778,0.392 5.404,3.703 7.793,7.63h1.113h0.156h1.113c2.389,-3.927 6.014,-7.238 7.793,-7.63c0.01,0.132 0.016,0.318 0.016,0.577c0,0.666 -0.354,4.719 -0.508,5.292z"></path></g></g></svg>