<svg width="28" height="27" viewBox="0 0 28 27" fill="none" xmlns="http://www.w3.org/2000/svg">
<path fill-rule="evenodd" clip-rule="evenodd" d="M8.09375 2.53125C8.31753 2.53125 8.53214 2.62014 8.69037 2.77838C8.84861 2.93661 8.9375 3.15122 8.9375 3.375V5.0625H19.0625V3.375C19.0625 3.15122 19.1514 2.93661 19.3096 2.77838C19.4679 2.62014 19.6825 2.53125 19.9062 2.53125C20.13 2.53125 20.3446 2.62014 20.5029 2.77838C20.6611 2.93661 20.75 3.15122 20.75 3.375V5.0625H21.5938C22.4889 5.0625 23.3473 5.41808 23.9802 6.05101C24.6132 6.68395 24.9688 7.54239 24.9688 8.4375V21.0938C24.9688 21.9889 24.6132 22.8473 23.9802 23.4802C23.3473 24.1132 22.4889 24.4688 21.5938 24.4688H6.40625C5.51114 24.4688 4.6527 24.1132 4.01976 23.4802C3.38683 22.8473 3.03125 21.9889 3.03125 21.0938V8.4375C3.03125 7.54239 3.38683 6.68395 4.01976 6.05101C4.6527 5.41808 5.51114 5.0625 6.40625 5.0625H7.25V3.375C7.25 3.15122 7.33889 2.93661 7.49713 2.77838C7.65536 2.62014 7.86997 2.53125 8.09375 2.53125ZM23.2812 12.6562C23.2812 12.2087 23.1035 11.7795 22.787 11.463C22.4705 11.1465 22.0413 10.9688 21.5938 10.9688H6.40625C5.9587 10.9688 5.52947 11.1465 5.21301 11.463C4.89654 11.7795 4.71875 12.2087 4.71875 12.6562V21.0938C4.71875 21.5413 4.89654 21.9705 5.21301 22.287C5.52947 22.6035 5.9587 22.7812 6.40625 22.7812H21.5938C22.0413 22.7812 22.4705 22.6035 22.787 22.287C23.1035 21.9705 23.2812 21.5413 23.2812 21.0938V12.6562Z" class="fill-current"/>
</svg>
