<svg width="16" height="16" viewBox="0 0 16 16" fill="none" xmlns="http://www.w3.org/2000/svg">
<path d="M10.9997 5.44008H4.99967C4.72353 5.44008 4.49967 5.66394 4.49967 5.94008C4.49967 6.21622 4.72353 6.44008 4.99967 6.44008H10.9997C11.2758 6.44008 11.4997 6.21622 11.4997 5.94008C11.4997 5.66394 11.2758 5.44008 10.9997 5.44008Z" stroke="none" class="fill-current"/>
<path fill-rule="evenodd" clip-rule="evenodd" d="M11.2597 2.38008H11.333C13.174 2.38008 14.6663 3.87247 14.6663 5.71341V11.7134C14.6663 13.5544 13.174 15.0467 11.333 15.0467H4.66634C3.78229 15.0467 2.93444 14.6956 2.30932 14.0704C1.6842 13.4453 1.33301 12.5975 1.33301 11.7134V5.71341C1.33301 3.87247 2.82539 2.38008 4.66634 2.38008H4.72634V1.16675C4.72634 0.890606 4.9502 0.666748 5.22634 0.666748C5.50248 0.666748 5.72634 0.890606 5.72634 1.16675V2.38008H10.2597V1.16675C10.2597 0.890606 10.4835 0.666748 10.7597 0.666748C11.0358 0.666748 11.2597 0.890606 11.2597 1.16675V2.38008ZM11.333 14.0467C12.6217 14.0467 13.6663 13.0021 13.6663 11.7134V5.71341C13.6663 4.42475 12.6217 3.38008 11.333 3.38008H4.66634C3.37768 3.38008 2.33301 4.42475 2.33301 5.71341V11.7134C2.33301 13.0021 3.37768 14.0467 4.66634 14.0467H11.333Z" stroke="none" class="fill-current"/>
</svg>
