<svg width="24" height="22" viewBox="0 0 24 22" fill="none" xmlns="http://www.w3.org/2000/svg">
<path d="M4.27344 21.3921C1.84766 21.3921 0.589844 20.1455 0.589844 17.7422V4.07471C0.589844 1.67139 1.84766 0.424805 4.27344 0.424805H19.7266C22.1523 0.424805 23.4102 1.67139 23.4102 4.07471V17.7422C23.4102 20.1343 22.1523 21.3921 19.7266 21.3921H4.27344ZM4.23975 19.1909H19.7378C20.6812 19.1909 21.209 18.6968 21.209 17.7197V7.34277C21.209 6.35449 20.6812 5.87158 19.7378 5.87158H4.23975C3.30762 5.87158 2.79102 6.35449 2.79102 7.34277V17.7197C2.79102 18.6968 3.30762 19.1909 4.23975 19.1909ZM9.83252 9.76855C9.43945 9.76855 9.30469 9.64502 9.30469 9.24072V8.58936C9.30469 8.18506 9.43945 8.06152 9.83252 8.06152H10.4951C10.8994 8.06152 11.0342 8.18506 11.0342 8.58936V9.24072C11.0342 9.64502 10.8994 9.76855 10.4951 9.76855H9.83252ZM13.5161 9.76855C13.1118 9.76855 12.9771 9.64502 12.9771 9.24072V8.58936C12.9771 8.18506 13.1118 8.06152 13.5161 8.06152H14.1675C14.5718 8.06152 14.7065 8.18506 14.7065 8.58936V9.24072C14.7065 9.64502 14.5718 9.76855 14.1675 9.76855H13.5161ZM17.1885 9.76855C16.7842 9.76855 16.6494 9.64502 16.6494 9.24072V8.58936C16.6494 8.18506 16.7842 8.06152 17.1885 8.06152H17.8398C18.2441 8.06152 18.3789 8.18506 18.3789 8.58936V9.24072C18.3789 9.64502 18.2441 9.76855 17.8398 9.76855H17.1885ZM6.16016 13.3848C5.76709 13.3848 5.63232 13.2612 5.63232 12.8569V12.2056C5.63232 11.8013 5.76709 11.6777 6.16016 11.6777H6.82275C7.22705 11.6777 7.36182 11.8013 7.36182 12.2056V12.8569C7.36182 13.2612 7.22705 13.3848 6.82275 13.3848H6.16016ZM9.83252 13.3848C9.43945 13.3848 9.30469 13.2612 9.30469 12.8569V12.2056C9.30469 11.8013 9.43945 11.6777 9.83252 11.6777H10.4951C10.8994 11.6777 11.0342 11.8013 11.0342 12.2056V12.8569C11.0342 13.2612 10.8994 13.3848 10.4951 13.3848H9.83252ZM13.5161 13.3848C13.1118 13.3848 12.9771 13.2612 12.9771 12.8569V12.2056C12.9771 11.8013 13.1118 11.6777 13.5161 11.6777H14.1675C14.5718 11.6777 14.7065 11.8013 14.7065 12.2056V12.8569C14.7065 13.2612 14.5718 13.3848 14.1675 13.3848H13.5161ZM17.1885 13.3848C16.7842 13.3848 16.6494 13.2612 16.6494 12.8569V12.2056C16.6494 11.8013 16.7842 11.6777 17.1885 11.6777H17.8398C18.2441 11.6777 18.3789 11.8013 18.3789 12.2056V12.8569C18.3789 13.2612 18.2441 13.3848 17.8398 13.3848H17.1885ZM6.16016 17.001C5.76709 17.001 5.63232 16.8774 5.63232 16.4731V15.8218C5.63232 15.4175 5.76709 15.2939 6.16016 15.2939H6.82275C7.22705 15.2939 7.36182 15.4175 7.36182 15.8218V16.4731C7.36182 16.8774 7.22705 17.001 6.82275 17.001H6.16016ZM9.83252 17.001C9.43945 17.001 9.30469 16.8774 9.30469 16.4731V15.8218C9.30469 15.4175 9.43945 15.2939 9.83252 15.2939H10.4951C10.8994 15.2939 11.0342 15.4175 11.0342 15.8218V16.4731C11.0342 16.8774 10.8994 17.001 10.4951 17.001H9.83252ZM13.5161 17.001C13.1118 17.001 12.9771 16.8774 12.9771 16.4731V15.8218C12.9771 15.4175 13.1118 15.2939 13.5161 15.2939H14.1675C14.5718 15.2939 14.7065 15.4175 14.7065 15.8218V16.4731C14.7065 16.8774 14.5718 17.001 14.1675 17.001H13.5161Z" class="fill-current"/>
</svg>
