<svg width="39" height="31" viewBox="0 0 39 31" fill="none" xmlns="http://www.w3.org/2000/svg">
<path d="M5.21875 30.125C1.95312 30.125 0.3125 28.5 0.3125 25.2812V8.92188C0.3125 5.70312 1.95312 4.09375 5.21875 4.09375H9.57812C10.7969 4.09375 11.1875 3.82812 11.8906 3.0625L13.1406 1.65625C13.9219 0.796875 14.7188 0.328125 16.3281 0.328125H22.5625C24.1719 0.328125 24.9688 0.796875 25.75 1.65625L27 3.0625C27.7031 3.84375 28.0781 4.09375 29.3125 4.09375H33.7812C37.0312 4.09375 38.6875 5.70312 38.6875 8.92188V25.2812C38.6875 28.5 37.0312 30.125 33.7812 30.125H5.21875ZM19.5 25.5156C24.2188 25.5156 28.0156 21.7344 28.0156 16.9688C28.0156 12.2188 24.2344 8.4375 19.5 8.4375C14.7656 8.4375 10.9688 12.2188 10.9688 16.9688C10.9688 21.7344 14.7656 25.5156 19.5 25.5156ZM29.0625 11.2188C29.0625 12.3438 30 13.2344 31.0938 13.2344C32.1719 13.2188 33.0938 12.3281 33.0938 11.2188C33.0938 10.1562 32.1719 9.21875 31.0938 9.21875C30 9.21875 29.0625 10.1562 29.0625 11.2188ZM19.5 23.1406C16.1094 23.1406 13.3281 20.4062 13.3281 16.9688C13.3281 13.5469 16.0938 10.7969 19.5 10.7969C22.9062 10.7969 25.6562 13.5469 25.6562 16.9688C25.6562 20.4062 22.9062 23.1406 19.5 23.1406Z" fill="inherit"/>
</svg>
