<svg width="23" height="24" viewBox="0 0 23 24" fill="none" xmlns="http://www.w3.org/2000/svg">
<path d="M11.5 23.8467C5.24463 23.8467 0.0449219 18.647 0.0449219 12.3916C0.0449219 6.125 5.2334 0.936523 11.4888 0.936523C17.7554 0.936523 22.9551 6.125 22.9551 12.3916C22.9551 18.647 17.7666 23.8467 11.5 23.8467ZM10.2422 17.8833C10.624 17.8833 10.9497 17.7036 11.1855 17.333L16.4639 9.02246C16.5986 8.78662 16.7446 8.52832 16.7446 8.28125C16.7446 7.75342 16.2842 7.4165 15.79 7.4165C15.498 7.4165 15.2061 7.59619 14.9927 7.93311L10.1973 15.6372L7.91748 12.6948C7.63672 12.3242 7.38965 12.2231 7.06396 12.2231C6.55859 12.2231 6.16553 12.6387 6.16553 13.144C6.16553 13.4023 6.2666 13.6494 6.43506 13.874L9.25391 17.333C9.5459 17.7261 9.86035 17.8833 10.2422 17.8833Z" class="fill-current"/>
</svg>
