<svg width="14" height="14" viewBox="0 0 14 14" fill="none" xmlns="http://www.w3.org/2000/svg">
<path d="M4.76634 4.05992C4.56933 3.87635 4.26234 3.88176 4.07193 4.07217C3.88152 4.26258 3.8761 4.56958 4.05967 4.76659L6.57968 7.28659V10.4133C6.57968 10.6894 6.80353 10.9133 7.07967 10.9133C7.35582 10.9133 7.57967 10.6894 7.57967 10.4133V7.07992C7.57956 6.94736 7.5268 6.82026 7.43301 6.72659L4.76634 4.05992Z" stroke="none" class="fill-current"/>
<path fill-rule="evenodd" clip-rule="evenodd" d="M5.66634 0.333252H8.49301C9.9075 0.333252 11.264 0.895155 12.2642 1.89535C13.2644 2.89554 13.8263 4.2521 13.8263 5.66659V8.49325C13.8263 11.4388 11.4385 13.8266 8.49301 13.8266H5.66634C2.72082 13.8266 0.333008 11.4388 0.333008 8.49325V5.66659C0.333008 2.72107 2.72082 0.333252 5.66634 0.333252ZM8.49301 12.8266C10.8847 12.8229 12.8227 10.885 12.8263 8.49325V5.66659C12.8227 3.27487 10.8847 1.33692 8.49301 1.33325H5.66634C3.27463 1.33692 1.33668 3.27487 1.33301 5.66659V8.49325C1.33668 10.885 3.27463 12.8229 5.66634 12.8266H8.49301Z" stroke="none" class="fill-current"/>
</svg>
