<svg width="24" height="24" viewBox="0 0 24 24" fill="none" xmlns="http://www.w3.org/2000/svg">
<path d="M12 23.4927C5.65479 23.4927 0.398926 18.248 0.398926 11.8916C0.398926 5.54639 5.64355 0.290527 11.9888 0.290527C18.3452 0.290527 23.6011 5.54639 23.6011 11.8916C23.6011 18.248 18.3452 23.4927 12 23.4927ZM12 21.2129C17.166 21.2129 21.3213 17.0576 21.3213 11.8916C21.3213 6.72559 17.1548 2.58154 11.9888 2.58154C6.82275 2.58154 2.68994 6.72559 2.68994 11.8916C2.68994 17.0576 6.83398 21.2129 12 21.2129ZM6.31738 13.2842C5.81201 13.2842 5.43018 12.8911 5.43018 12.397C5.43018 11.8916 5.81201 11.5098 6.31738 11.5098H11.1016V5.02979C11.1016 4.53564 11.4946 4.14258 11.9888 4.14258C12.4941 4.14258 12.8872 4.53564 12.8872 5.02979V12.397C12.8872 12.8911 12.4941 13.2842 11.9888 13.2842H6.31738Z" class="fill-current"/>
</svg>
