<svg width="56" height="56" viewBox="0 0 56 56" fill="none" xmlns="http://www.w3.org/2000/svg">
<path d="M28.1187 4.66675L24.9221 11.2001C22.6378 15.8676 19.5764 20.1125 15.8687 23.7534L15.4487 24.1501C13.0675 26.4619 11.7069 29.6281 11.6687 32.9467V33.3667C11.6057 39.8654 15.4781 45.7571 21.4687 48.2767L22.0754 48.5334C26.0044 50.2023 30.443 50.2023 34.3721 48.5334H34.5121C40.5474 45.9112 44.4198 39.9233 44.3354 33.3434V23.2167C42.3241 27.81 38.6715 31.4876 34.0921 33.5301C34.0921 33.5301 34.0921 33.5301 33.9521 33.5301C33.8121 33.5301 32.1787 34.2067 31.4787 33.5301C30.8535 32.8975 30.7936 31.8996 31.3387 31.1967L31.5021 31.0801H31.6187C36.9755 27.0084 38.2244 19.4641 34.4654 13.8834C31.4321 9.26341 28.1187 4.66675 28.1187 4.66675Z" fill="white"/>
</svg>
