<svg width="25" height="24" viewBox="0 0 25 24" fill="none" xmlns="http://www.w3.org/2000/svg">
<g id="github-mark-white 2" clip-path="url(#clip0_369_865)">
<path id="Vector" fill-rule="evenodd" clip-rule="evenodd" d="M12.2975 0C5.68158 0 0.333252 5.5 0.333252 12.3043C0.333252 17.7433 3.76011 22.3473 8.51407 23.9768C9.10844 24.0993 9.32615 23.712 9.32615 23.3863C9.32615 23.101 9.30656 22.1233 9.30656 21.1045C5.97839 21.838 5.28533 19.6378 5.28533 19.6378C4.75048 18.2118 3.95799 17.8453 3.95799 17.8453C2.86868 17.0915 4.03733 17.0915 4.03733 17.0915C5.24566 17.173 5.8797 18.3545 5.8797 18.3545C6.94917 20.2285 8.67252 19.699 9.36582 19.373C9.46476 18.5785 9.78191 18.0285 10.1186 17.723C7.46419 17.4378 4.67137 16.3785 4.67137 11.6523C4.67137 10.3078 5.14648 9.20775 5.89929 8.35225C5.78052 8.04675 5.36444 6.7835 6.01831 5.09275C6.01831 5.09275 7.02852 4.76675 9.30631 6.35575C10.2815 6.08642 11.2872 5.9494 12.2975 5.94825C13.3077 5.94825 14.3375 6.091 15.2884 6.35575C17.5665 4.76675 18.5767 5.09275 18.5767 5.09275C19.2306 6.7835 18.8142 8.04675 18.6955 8.35225C19.4681 9.20775 19.9236 10.3078 19.9236 11.6523C19.9236 16.3785 17.1308 17.4173 14.4565 17.723C14.8924 18.11 15.2686 18.8433 15.2686 20.0045C15.2686 21.6545 15.249 22.9788 15.249 23.386C15.249 23.712 15.467 24.0993 16.0611 23.977C20.8151 22.347 24.2419 17.7433 24.2419 12.3043C24.2615 5.5 18.8936 0 12.2975 0Z" fill="white"/>
</g>
<defs>
<clipPath id="clip0_369_865">
<rect width="24" height="24" fill="white" transform="translate(0.333252)"/>
</clipPath>
</defs>
</svg>
