<svg width="25" height="24" viewBox="0 0 25 24" fill="none" xmlns="http://www.w3.org/2000/svg">
<path d="M20.9491 20.4495H17.3931V14.8805C17.3931 13.5525 17.3694 11.843 15.5436 11.843C13.6915 11.843 13.4081 13.2899 13.4081 14.7838V20.4492H9.85204V8.99694H13.2658V10.562H13.3136C14.0097 9.3718 15.304 8.66093 16.6819 8.71208C20.2861 8.71208 20.9506 11.0828 20.9506 14.167L20.9491 20.4495ZM5.83963 7.4315C4.69992 7.43171 3.77584 6.50794 3.77564 5.36821C3.77544 4.22848 4.69918 3.30438 5.83889 3.30417C6.9786 3.30397 7.90268 4.22774 7.90288 5.36747C7.90298 5.91478 7.68566 6.43973 7.29872 6.82681C6.91179 7.21389 6.38694 7.4314 5.83963 7.4315ZM7.61765 20.4495H4.0579V8.99694H7.61765V20.4495ZM22.722 0.00178957H2.27099C1.30443 -0.00911825 0.511796 0.765131 0.5 1.7317V22.268C0.511392 23.235 1.30396 24.01 2.27099 23.9999H22.722C23.6909 24.0119 24.4866 23.2369 24.5 22.268V1.73022C24.4862 0.761739 23.6904 -0.0124652 22.722 0.000152051" fill="white"/>
</svg>
