<svg width="21" height="20" viewBox="0 0 21 20" fill="none" xmlns="http://www.w3.org/2000/svg">
<path d="M10.5 20C4.97715 20 0.5 15.5228 0.5 10C0.5 4.47715 4.97715 0 10.5 0C16.0228 0 20.5 4.47715 20.5 10C20.5 15.5228 16.0228 20 10.5 20ZM8.21002 17.6674C7.24743 15.6259 6.65732 13.3742 6.52731 11H2.56189C2.958 14.1765 5.21639 16.7747 8.21002 17.6674ZM8.5307 11C8.6811 13.4388 9.3778 15.7297 10.5 17.752C11.6222 15.7297 12.3189 13.4388 12.4693 11H8.5307ZM18.4381 11H14.4727C14.3427 13.3742 13.7526 15.6259 12.79 17.6674C15.7836 16.7747 18.042 14.1765 18.4381 11ZM2.56189 9H6.52731C6.65732 6.62577 7.24743 4.37407 8.21002 2.33256C5.21639 3.22533 2.958 5.8235 2.56189 9ZM8.5307 9H12.4693C12.3189 6.56122 11.6222 4.27025 10.5 2.24799C9.3778 4.27025 8.6811 6.56122 8.5307 9ZM12.79 2.33256C13.7526 4.37407 14.3427 6.62577 14.4727 9H18.4381C18.042 5.8235 15.7836 3.22533 12.79 2.33256Z" fill="white"/>
</svg>
