<svg width="24" height="24" viewBox="0 0 24 24" fill="none" xmlns="http://www.w3.org/2000/svg">
<circle cx="12" cy="12" r="11" fill="#432463" stroke="white" stroke-width="2"/>
<path fill-rule="evenodd" clip-rule="evenodd" d="M7.3286 12.676C7.3286 10.1907 9.34332 8.17599 11.8286 8.17599C14.3139 8.17599 16.3286 10.1907 16.3286 12.676C16.3286 15.1613 14.3139 17.176 11.8286 17.176C9.34332 17.176 7.3286 15.1613 7.3286 12.676ZM11.8286 15.051C12.0357 15.051 12.2036 14.8831 12.2036 14.676V12.471C12.2035 12.3716 12.1639 12.2762 12.0936 12.206L10.6536 10.771C10.584 10.6995 10.4884 10.6592 10.3886 10.6592C10.2888 10.6592 10.1932 10.6995 10.1236 10.771C9.97737 10.9174 9.97737 11.1546 10.1236 11.301L11.4536 12.626V14.676C11.4536 14.8831 11.6215 15.051 11.8286 15.051Z" fill="white"/>
<path d="M16.5936 8.92599C15.9773 8.10177 15.1571 7.45215 14.2136 7.04099C14.1224 6.99753 14.0174 6.99325 13.923 7.02913C13.8286 7.06501 13.7529 7.13794 13.7136 7.23099C13.6719 7.323 13.6691 7.42795 13.7058 7.52207C13.7425 7.61618 13.8156 7.69151 13.9086 7.73099C14.7321 8.09331 15.4484 8.66155 15.9886 9.38099C16.0594 9.47542 16.1706 9.53099 16.2886 9.53099C16.3698 9.53136 16.4489 9.505 16.5136 9.45599C16.5954 9.39699 16.65 9.30754 16.665 9.20781C16.6801 9.10809 16.6543 9.0065 16.5936 8.92599Z" fill="white"/>
<path d="M7.6636 9.37599C8.20379 8.65655 8.92012 8.08831 9.7436 7.72599C9.83659 7.68651 9.90972 7.61118 9.94642 7.51707C9.98313 7.42295 9.98031 7.318 9.9386 7.22599C9.89929 7.13294 9.82363 7.06001 9.72921 7.02413C9.63478 6.98825 9.52979 6.99253 9.4386 7.03599C8.49638 7.44929 7.6779 8.10062 7.0636 8.92599C6.9556 9.08699 6.98811 9.30377 7.1386 9.42599C7.20334 9.475 7.2824 9.50136 7.3636 9.50099C7.4774 9.50707 7.58779 9.46108 7.6636 9.37599Z" fill="white"/>
</svg>
