<svg width="28" height="27" viewBox="0 0 28 27" fill="none" xmlns="http://www.w3.org/2000/svg">
<path d="M13.1562 12.6562L13.2024 12.6337C13.3466 12.5617 13.5085 12.5325 13.6689 12.5496C13.8292 12.5666 13.9813 12.6293 14.1071 12.7302C14.233 12.831 14.3273 12.9658 14.3789 13.1186C14.4305 13.2714 14.4372 13.4358 14.3983 13.5922L13.6017 16.7828C13.5625 16.9393 13.5691 17.1038 13.6205 17.2568C13.672 17.4098 13.7663 17.5448 13.8922 17.6458C14.018 17.7468 14.1703 17.8096 14.3307 17.8267C14.4912 17.8438 14.6533 17.8146 14.7976 17.7424L14.8438 17.7188M24.125 13.5C24.125 14.8296 23.8631 16.1462 23.3543 17.3747C22.8455 18.6031 22.0996 19.7193 21.1595 20.6595C20.2193 21.5996 19.1031 22.3455 17.8747 22.8543C16.6462 23.3631 15.3296 23.625 14 23.625C12.6704 23.625 11.3538 23.3631 10.1253 22.8543C8.89691 22.3455 7.78074 21.5996 6.84054 20.6595C5.90035 19.7193 5.15455 18.6031 4.64572 17.3747C4.13689 16.1462 3.875 14.8296 3.875 13.5C3.875 10.8147 4.94174 8.23935 6.84054 6.34054C8.73935 4.44174 11.3147 3.375 14 3.375C16.6853 3.375 19.2606 4.44174 21.1595 6.34054C23.0583 8.23935 24.125 10.8147 24.125 13.5ZM14 9.28125H14.009V9.29025H14V9.28125Z" class="stroke-current" stroke-width="1.5" stroke-linecap="round" stroke-linejoin="round" fill="none"/>
</svg>
