<svg width="24" height="24" viewBox="0 0 24 24" fill="none" xmlns="http://www.w3.org/2000/svg">
<path d="M12 23.4927C5.65479 23.4927 0.398926 18.248 0.398926 11.8916C0.398926 5.54639 5.64355 0.290527 11.9888 0.290527C18.3452 0.290527 23.6011 5.54639 23.6011 11.8916C23.6011 18.248 18.3452 23.4927 12 23.4927ZM12 21.2129C17.166 21.2129 21.3213 17.0576 21.3213 11.8916C21.3213 6.72559 17.1548 2.58154 11.9888 2.58154C6.82275 2.58154 2.68994 6.72559 2.68994 11.8916C2.68994 17.0576 6.83398 21.2129 12 21.2129ZM11.9326 8.20801C11.0903 8.20801 10.4165 7.52295 10.4165 6.69189C10.4165 5.83838 11.0903 5.16455 11.9326 5.16455C12.7749 5.16455 13.4487 5.83838 13.4487 6.69189C13.4487 7.52295 12.7749 8.20801 11.9326 8.20801ZM10.0347 18.0684C9.54053 18.0684 9.14746 17.709 9.14746 17.2036C9.14746 16.7319 9.54053 16.3613 10.0347 16.3613H11.3711V11.667H10.2368C9.73145 11.667 9.34961 11.3076 9.34961 10.8022C9.34961 10.3306 9.73145 9.94873 10.2368 9.94873H12.3481C12.9771 9.94873 13.3027 10.3867 13.3027 11.0493V16.3613H14.5605C15.0547 16.3613 15.4478 16.7319 15.4478 17.2036C15.4478 17.709 15.0547 18.0684 14.5605 18.0684H10.0347Z" class="fill-current"/>
</svg>
