<svg width="10" height="14" viewBox="0 0 10 14" fill="none" xmlns="http://www.w3.org/2000/svg">
<path d="M8.21301 9.32324C7.96976 9.20101 7.67343 9.29583 7.54634 9.53657C7.4289 9.78183 7.52599 10.0761 7.76634 10.2032C8.35301 10.5032 8.68634 10.8699 8.68634 11.2232C8.68634 11.9766 7.11301 12.8166 5.00634 12.8166C2.89967 12.8166 1.31967 11.9832 1.31967 11.2499C1.31967 10.9032 1.65301 10.5299 2.23967 10.2299C2.41561 10.1594 2.53653 9.9954 2.55194 9.80648C2.56735 9.61756 2.47461 9.43616 2.31243 9.33804C2.15026 9.23991 1.94654 9.24193 1.78634 9.34324C0.97694 9.64831 0.41266 10.3886 0.333008 11.2499C0.333008 12.7299 2.33301 13.8432 4.99967 13.8432C7.66634 13.8432 9.66634 12.7299 9.66634 11.2499C9.59404 10.3811 9.0285 9.6314 8.21301 9.32324Z" stroke="none" class="fill-current"/>
<path fill-rule="evenodd" clip-rule="evenodd" d="M4.49967 11.5432V8.66324C2.30427 8.39873 0.694693 6.47011 0.827185 4.2628C0.959676 2.05549 2.78839 0.333252 4.99967 0.333252C7.21096 0.333252 9.03967 2.05549 9.17216 4.2628C9.30466 6.47011 7.69508 8.39873 5.49967 8.66324V11.5432C5.49967 11.8194 5.27582 12.0432 4.99967 12.0432C4.72353 12.0432 4.49967 11.8194 4.49967 11.5432ZM7.94916 3.29401C7.45421 2.10263 6.28977 1.32721 4.99968 1.32991C3.24493 1.33357 1.82334 2.75516 1.81968 4.50991C1.81698 5.8 2.5924 6.96444 3.78378 7.45939C4.97515 7.95433 6.34741 7.68212 7.25965 6.76988C8.17189 5.85764 8.4441 4.48538 7.94916 3.29401Z" stroke="none" class="fill-current"/>
<path d="M3.39301 5.24991C3.66915 5.24991 3.89301 5.02605 3.89301 4.74991C3.89301 3.98407 4.51384 3.36324 5.27968 3.36324C5.55582 3.36324 5.77968 3.13938 5.77968 2.86324C5.77968 2.5871 5.55582 2.36324 5.27968 2.36324C4.64492 2.36501 4.03687 2.61885 3.58928 3.06894C3.1417 3.51903 2.89124 4.12849 2.89301 4.76324C2.89477 4.89408 2.94843 5.01887 3.0422 5.11014C3.13597 5.20141 3.26217 5.25169 3.39301 5.24991Z" stroke="none" class="fill-current"/>
</svg>
