<svg width="390" height="77" viewBox="0 0 390 77" fill="none" xmlns="http://www.w3.org/2000/svg">
<path d="M89.6096 69.6911L89.7469 69.0376C90.5277 65.3335 91.9951 63.5163 95.3638 61.4459C97.7019 60.0032 98.5299 59.559 98.5299 58.186C98.5299 57.6977 98.3243 57.3711 97.8863 57.3711C97.2003 57.3711 96.8565 58.0245 96.5347 59.4892H91.4204C91.8577 57.1141 93.1408 53.9937 98.2772 53.9937C102.315 53.9937 104.169 55.8806 104.169 58.487C104.169 60.9319 103.16 62.0736 100.178 63.6559C99.3071 64.122 97.6088 65.0765 97.1967 65.73H103.32L101.873 69.6911H89.606H89.6096Z" fill="white"/>
<path d="M116.851 58.3731C116.898 57.5802 116.761 57.0699 116.049 57.0699C115.225 57.0699 114.604 57.9326 114.145 60.3775C114.878 59.6543 115.955 59.3055 117.264 59.3055C119.581 59.3055 121.233 60.7483 121.233 63.3363C121.233 67.5286 118.25 70.0213 113.87 70.0213C109.489 70.0213 107.768 67.7159 107.768 63.8246C107.768 60.5647 109.352 53.9495 115.886 53.9495C121.25 53.9495 121.756 56.8606 121.756 58.3768H116.848L116.851 58.3731ZM115.338 63.5199C115.338 63.0317 115.2 62.5177 114.604 62.5177C113.685 62.5177 113.226 64.2174 113.226 65.6858C113.226 66.3392 113.454 66.7798 113.981 66.7798C114.875 66.7798 115.334 64.8231 115.334 63.5199H115.338Z" fill="white"/>
<path d="M147.556 59.9077L141.824 65.4289C139.142 67.9913 137.191 70.0397 132.903 70.0397C129.003 70.0397 127.034 67.9435 127.034 65.4032C127.034 62.7234 129.119 61.2109 133.385 60.0252C136.272 59.1625 136.709 58.186 136.709 57.3012C136.709 56.6735 136.366 56.277 135.86 56.277C135.286 56.277 134.851 56.7653 134.851 57.4188C134.851 58.0721 135.311 58.7917 135.976 59.3754L146.248 69.6947H139.413L131.179 61.2182C130.24 60.2161 129.828 59.1918 129.828 58.3071C129.828 55.3042 132.076 53.2778 135.86 53.2778C139.323 53.2778 141.456 54.8857 141.456 57.2609C141.456 59.4745 139.873 60.8695 135.311 62.0589C132.835 62.7344 132.239 63.7366 132.239 64.5038C132.239 65.4583 132.882 66.2035 134.118 66.2035C135.607 66.2035 136.41 65.1573 138.657 62.9913L141.846 59.9151H147.556V59.9077Z" fill="white"/>
<path d="M151.916 69.6911L152.053 69.0376C152.834 65.3335 154.301 63.5163 157.67 61.4459C160.009 60.0032 160.836 59.559 160.836 58.186C160.836 57.6977 160.63 57.3711 160.193 57.3711C159.506 57.3711 159.162 58.0245 158.841 59.4892H153.726C154.163 57.1141 155.447 53.9937 160.583 53.9937C164.621 53.9937 166.475 55.8806 166.475 58.487C166.475 60.9319 165.466 62.0736 162.484 63.6559C161.613 64.122 159.915 65.0765 159.503 65.73H165.625L164.18 69.6911H151.912H151.916Z" fill="white"/>
<path d="M183.535 54.2725L182.801 57.7673C179.729 61.2622 176.953 65.7078 175.579 69.6908H169.479C170.693 66.0565 174.181 60.8179 176.931 58.3473H170.487L171.358 54.2725H183.535Z" fill="white"/>
<path d="M18.0759 64.614C18.1663 65.5464 18.694 66.2439 19.7711 66.2439C20.4831 66.2439 21.1229 65.9649 21.1229 65.172C21.1229 64.4268 20.5048 64.078 18.8747 63.564C15.3217 62.4443 13.7603 61.1669 13.7603 58.8578C13.7603 55.4106 16.3735 53.197 20.8916 53.197C25.041 53.197 27.9325 54.8747 27.9543 58.3696H22.3121C22.3121 57.7859 22.0591 57.0406 20.9349 57.0406C20.1795 57.0406 19.8326 57.4114 19.8326 57.9474C19.8326 58.5531 20.5446 58.9275 22.2181 59.4157C26.3675 60.6492 27.4229 62.349 27.4229 64.4451C27.4229 68.4025 23.9602 70.1059 19.6735 70.1059C14.6964 70.1059 12.4952 67.9399 12.4048 64.6103H18.0687L18.0759 64.614Z" fill="white"/>
<path d="M44.1686 63.6815H37.7023L37.2903 65.6161H44.7649L43.2975 69.6909H30.73L34.077 53.6191H46.5288L45.7047 57.694H38.9854L38.5734 59.603H45.0397L44.1686 63.6778V63.6815Z" fill="white"/>
<path d="M51.5278 53.6228H58.9555C63.0615 53.6228 64.8254 55.8364 64.8254 58.3731C64.8254 61.7982 62.2808 64.2431 57.8314 64.2431H55.1242L54.0217 69.6946H48.1736L51.5205 53.6228H51.5278ZM55.9302 60.539H56.8699C58.1096 60.539 58.7964 59.8635 58.7964 58.5823C58.7964 57.7454 58.4061 57.3012 57.3977 57.3012H56.6422L55.9302 60.539Z" fill="white"/>
<path d="M72.1878 57.6976H68.2444L69.1155 53.6228H82.9878L82.1167 57.6976H78.2167L75.7408 69.6909H69.7083L72.1842 57.6976H72.1878Z" fill="white"/>
<path d="M183.708 71.879C185.129 69.434 186.231 66.545 186.69 64.1221H191.437C190.887 66.5927 189.488 69.7829 187.72 71.879H183.708Z" fill="white"/>
<path d="M206.585 57.6976H202.641L203.512 53.6228H217.384L216.514 57.6976H212.614L210.137 69.6909H204.105L206.581 57.6976H206.585Z" fill="white"/>
<path d="M235.912 60.1866C235.912 64.658 233.552 70.1095 226.349 70.1095C221.075 70.1095 219.17 66.8239 219.17 63.3548C219.17 58.465 222.083 53.2007 228.593 53.2007C233.639 53.2007 235.909 56.3431 235.909 60.1866H235.912ZM225.365 63.843C225.365 64.9591 225.618 66.1007 226.88 66.1007C229.197 66.1007 229.861 61.0457 229.861 59.4855C229.861 58.4833 229.677 57.2021 228.372 57.2021C226.124 57.2021 225.368 62.092 225.368 63.8393L225.365 63.843Z" fill="white"/>
<path d="M245.653 63.9164L244.482 69.6946H238.543L241.89 53.6228H249.824C253.836 53.6228 255.42 55.5794 255.42 57.7454C255.42 59.9113 254.136 61.4494 252.047 62.0772C253.398 62.5875 254.064 63.9861 253.562 66.387C253.287 67.6682 253.033 69.1365 253.033 69.6946H247.323C247.232 69.0191 247.37 67.8994 247.761 66.0126C248.034 64.7093 248.034 63.9164 246.498 63.9164H245.649H245.653ZM246.455 60.282H247.486C248.678 60.282 249.412 59.6763 249.412 58.5126C249.412 57.8371 249.09 57.2534 248.128 57.2534H247.074L246.455 60.282Z" fill="white"/>
<path d="M275.324 60.1866C275.324 64.658 272.964 70.1095 265.761 70.1095C260.487 70.1095 258.582 66.8239 258.582 63.3548C258.582 58.465 261.496 53.2007 268.005 53.2007C273.051 53.2007 275.321 56.3431 275.321 60.1866H275.324ZM264.777 63.843C264.777 64.9591 265.03 66.1007 266.292 66.1007C268.609 66.1007 269.273 61.0457 269.273 59.4855C269.273 58.4833 269.089 57.2021 267.784 57.2021C265.537 57.2021 264.781 62.092 264.781 63.8393L264.777 63.843Z" fill="white"/>
<path d="M277.959 69.6909L281.306 53.6191H288.3C288.621 57.951 288.737 60.4179 288.896 62.7233H289.012C289.265 60.9061 289.793 57.6243 290.295 55.2014L290.616 53.6191H296.165L292.818 69.6909H286.121C285.846 66.5926 285.524 62.705 285.365 60.1646H285.274C285.09 62.0515 284.472 65.0324 283.898 67.782L283.507 69.6909H277.959Z" fill="white"/>
<path d="M303.249 57.6976H299.306L300.177 53.6228H314.05L313.178 57.6976H309.278L306.803 69.6909H300.77L303.246 57.6976H303.249Z" fill="white"/>
<path d="M332.577 60.1866C332.577 64.658 330.217 70.1095 323.013 70.1095C317.739 70.1095 315.834 66.8239 315.834 63.3548C315.834 58.465 318.748 53.2007 325.258 53.2007C330.303 53.2007 332.573 56.3431 332.573 60.1866H332.577ZM322.03 63.843C322.03 64.9591 322.283 66.1007 323.544 66.1007C325.861 66.1007 326.527 61.0457 326.527 59.4855C326.527 58.4833 326.342 57.2021 325.037 57.2021C322.789 57.2021 322.034 62.092 322.034 63.8393L322.03 63.843Z" fill="white"/>
<path d="M358.736 63.8467C357.611 68.5492 354.196 70.1131 350.205 70.1131C345.297 70.1131 343.302 67.202 343.302 63.3584C343.302 58.7476 345.824 53.2043 352.566 53.2043C357.564 53.2043 359.675 55.976 359.444 59.3055H353.526C353.595 58.1162 353.411 57.1874 352.287 57.1874C350.245 57.1874 349.489 62.0075 349.489 64.0339C349.489 65.1755 349.811 66.0603 350.772 66.0603C351.918 66.0603 352.399 65.0838 352.79 63.8467H358.728H358.736Z" fill="white"/>
<path d="M367.908 66.7578L366.832 69.6909H360.64L368.209 53.6191H376.327L377.357 69.6909H371.324V66.7578H367.908ZM371.393 62.683C371.393 61.6367 371.371 59.1881 371.371 57.7233H371.234C370.59 59.7277 370.041 61.1484 369.467 62.683H371.393Z" fill="white"/>
<path d="M89.6096 69.6911L89.7469 69.0376C90.5277 65.3335 91.9951 63.5163 95.3638 61.4459C97.7019 60.0032 98.5299 59.559 98.5299 58.186C98.5299 57.6978 98.3243 57.3711 97.8863 57.3711C97.2003 57.3711 96.8565 58.0245 96.5347 59.4892H91.4204C91.8577 57.1141 93.1408 53.9937 98.2772 53.9937C102.315 53.9937 104.169 55.8806 104.169 58.487C104.169 60.932 103.16 62.0736 100.178 63.6559C99.3071 64.1221 97.6088 65.0765 97.1967 65.73H103.32L101.873 69.6911H89.606H89.6096Z" fill="white"/>
<path d="M116.852 58.3733C116.899 57.5803 116.761 57.0701 116.049 57.0701C115.225 57.0701 114.604 57.9327 114.145 60.3776C114.878 59.6545 115.955 59.3058 117.264 59.3058C119.581 59.3058 121.233 60.7484 121.233 63.3365C121.233 67.5288 118.251 70.0215 113.87 70.0215C109.489 70.0215 107.769 67.7161 107.769 63.8247C107.769 60.5648 109.352 53.9497 115.887 53.9497C121.25 53.9497 121.756 56.8608 121.756 58.3769H116.848L116.852 58.3733ZM115.338 63.5201C115.338 63.0318 115.2 62.5179 114.604 62.5179C113.685 62.5179 113.226 64.2175 113.226 65.686C113.226 66.3394 113.454 66.7799 113.982 66.7799C114.875 66.7799 115.334 64.8233 115.334 63.5201H115.338Z" fill="white"/>
<path d="M147.556 59.9077L141.824 65.429C139.142 67.9913 137.191 70.0398 132.903 70.0398C129.003 70.0398 127.034 67.9436 127.034 65.4033C127.034 62.7234 129.119 61.211 133.385 60.0253C136.272 59.1625 136.709 58.186 136.709 57.3013C136.709 56.6735 136.366 56.2771 135.86 56.2771C135.286 56.2771 134.851 56.7654 134.851 57.4188C134.851 58.0722 135.311 58.7918 135.976 59.3755L146.248 69.6947H139.413L131.179 61.2183C130.24 60.2161 129.828 59.1919 129.828 58.3071C129.828 55.3042 132.076 53.2778 135.86 53.2778C139.323 53.2778 141.456 54.8857 141.456 57.261C141.456 59.4746 139.873 60.8696 135.311 62.059C132.835 62.7345 132.239 63.7367 132.239 64.5039C132.239 65.4584 132.882 66.2035 134.118 66.2035C135.607 66.2035 136.41 65.1574 138.657 62.9914L141.846 59.9151H147.556V59.9077Z" fill="white"/>
<path d="M151.916 69.6911L152.053 69.0376C152.834 65.3335 154.302 63.5163 157.67 61.4459C160.009 60.0032 160.837 59.559 160.837 58.186C160.837 57.6978 160.63 57.3711 160.193 57.3711C159.506 57.3711 159.162 58.0245 158.842 59.4892H153.726C154.164 57.1141 155.447 53.9937 160.583 53.9937C164.621 53.9937 166.475 55.8806 166.475 58.487C166.475 60.932 165.466 62.0736 162.484 63.6559C161.613 64.1221 159.915 65.0765 159.503 65.73H165.625L164.18 69.6911H151.912H151.916Z" fill="white"/>
<path d="M183.535 54.2725L182.801 57.7673C179.729 61.2621 176.953 65.7078 175.579 69.6908H169.479C170.693 66.0565 174.181 60.8179 176.931 58.3473H170.487L171.358 54.2725H183.535Z" fill="white"/>
<path d="M18.0761 64.6139C18.1664 65.5463 18.6942 66.2439 19.7713 66.2439C20.4834 66.2439 21.123 65.9648 21.123 65.1719C21.123 64.4267 20.505 64.078 18.8749 63.564C15.3219 62.4443 13.7604 61.1668 13.7604 58.8577C13.7604 55.4106 16.3737 53.197 20.8917 53.197C25.0411 53.197 27.9327 54.8747 27.9544 58.3695H22.3122C22.3122 57.7858 22.0592 57.0405 20.9351 57.0405C20.1797 57.0405 19.8327 57.4113 19.8327 57.9473C19.8327 58.5531 20.5448 58.9275 22.2183 59.4157C26.3677 60.6492 27.4231 62.3489 27.4231 64.445C27.4231 68.4024 23.9605 70.1058 19.6737 70.1058C14.6966 70.1058 12.4954 67.9398 12.405 64.6103H18.0689L18.0761 64.6139Z" fill="white"/>
<path d="M44.1687 63.6815H37.7025L37.2904 65.6161H44.7652L43.2976 69.691H30.7302L34.0772 53.6191H46.529L45.7049 57.694H38.9856L38.5736 59.603H45.0398L44.1687 63.6778V63.6815Z" fill="white"/>
<path d="M51.5278 53.6228H58.9555C63.0615 53.6228 64.8254 55.8364 64.8254 58.3731C64.8254 61.7982 62.2808 64.2431 57.8314 64.2431H55.1242L54.0217 69.6946H48.1736L51.5205 53.6228H51.5278ZM55.9302 60.539H56.8699C58.1096 60.539 58.7964 59.8635 58.7964 58.5823C58.7964 57.7454 58.4061 57.3012 57.3977 57.3012H56.6422L55.9302 60.539Z" fill="white"/>
<path d="M72.188 57.6976H68.2446L69.1157 53.6228H82.988L82.1169 57.6976H78.2169L75.741 69.6909H69.7085L72.1844 57.6976H72.188Z" fill="white"/>
<path d="M183.708 71.879C185.129 69.434 186.231 66.545 186.69 64.1221H191.437C190.887 66.5927 189.488 69.7829 187.72 71.879H183.708Z" fill="white"/>
<path d="M206.585 57.6976H202.641L203.512 53.6228H217.384L216.514 57.6976H212.614L210.137 69.6909H204.105L206.581 57.6976H206.585Z" fill="white"/>
<path d="M235.912 60.1866C235.912 64.658 233.552 70.1095 226.349 70.1095C221.075 70.1095 219.17 66.8239 219.17 63.3548C219.17 58.465 222.083 53.2007 228.593 53.2007C233.639 53.2007 235.909 56.3431 235.909 60.1866H235.912ZM225.365 63.843C225.365 64.9591 225.618 66.1007 226.88 66.1007C229.197 66.1007 229.861 61.0457 229.861 59.4855C229.861 58.4833 229.677 57.2021 228.372 57.2021C226.124 57.2021 225.368 62.092 225.368 63.8393L225.365 63.843Z" fill="white"/>
<path d="M245.653 63.9164L244.482 69.6946H238.543L241.89 53.6228H249.824C253.836 53.6228 255.42 55.5794 255.42 57.7454C255.42 59.9113 254.136 61.4494 252.047 62.0772C253.398 62.5875 254.064 63.9861 253.562 66.387C253.287 67.6682 253.033 69.1365 253.033 69.6946H247.323C247.232 69.0191 247.37 67.8994 247.761 66.0126C248.034 64.7093 248.034 63.9164 246.498 63.9164H245.649H245.653ZM246.455 60.282H247.486C248.678 60.282 249.412 59.6763 249.412 58.5126C249.412 57.8371 249.09 57.2534 248.128 57.2534H247.074L246.455 60.282Z" fill="white"/>
<path d="M275.324 60.1866C275.324 64.658 272.964 70.1095 265.761 70.1095C260.487 70.1095 258.582 66.8239 258.582 63.3548C258.582 58.465 261.496 53.2007 268.005 53.2007C273.051 53.2007 275.321 56.3431 275.321 60.1866H275.324ZM264.777 63.843C264.777 64.9591 265.03 66.1007 266.292 66.1007C268.609 66.1007 269.273 61.0457 269.273 59.4855C269.273 58.4833 269.089 57.2021 267.784 57.2021C265.537 57.2021 264.781 62.092 264.781 63.8393L264.777 63.843Z" fill="white"/>
<path d="M277.959 69.691L281.306 53.6191H288.3C288.622 57.951 288.737 60.418 288.897 62.7233H289.012C289.265 60.9062 289.793 57.6243 290.296 55.2014L290.617 53.6191H296.165L292.818 69.691H286.121C285.846 66.5926 285.524 62.705 285.365 60.1646H285.274C285.091 62.0516 284.472 65.0324 283.898 67.782L283.507 69.691H277.959Z" fill="white"/>
<path d="M303.249 57.6976H299.306L300.177 53.6228H314.05L313.178 57.6976H309.278L306.803 69.6909H300.77L303.246 57.6976H303.249Z" fill="white"/>
<path d="M332.577 60.1866C332.577 64.658 330.217 70.1095 323.013 70.1095C317.739 70.1095 315.834 66.8239 315.834 63.3548C315.834 58.465 318.748 53.2007 325.258 53.2007C330.303 53.2007 332.573 56.3431 332.573 60.1866H332.577ZM322.03 63.843C322.03 64.9591 322.283 66.1007 323.544 66.1007C325.861 66.1007 326.527 61.0457 326.527 59.4855C326.527 58.4833 326.342 57.2021 325.037 57.2021C322.789 57.2021 322.034 62.092 322.034 63.8393L322.03 63.843Z" fill="white"/>
<path d="M358.736 63.8469C357.611 68.5495 354.196 70.1134 350.205 70.1134C345.297 70.1134 343.302 67.2023 343.302 63.3587C343.302 58.7478 345.824 53.2046 352.566 53.2046C357.564 53.2046 359.675 55.9762 359.444 59.3059H353.526C353.595 58.1164 353.411 57.1876 352.287 57.1876C350.245 57.1876 349.489 62.0077 349.489 64.0341C349.489 65.1759 349.811 66.0605 350.772 66.0605C351.918 66.0605 352.399 65.084 352.79 63.8469H358.728H358.736Z" fill="white"/>
<path d="M367.908 66.7578L366.832 69.691H360.64L368.209 53.6191H376.327L377.357 69.691H371.324V66.7578H367.908ZM371.393 62.683C371.393 61.6367 371.371 59.1882 371.371 57.7234H371.234C370.59 59.7277 370.041 61.1484 369.467 62.683H371.393Z" fill="white"/>
<path d="M108.391 9.79077H98.1575V46.3616H122.295V36.9417H108.391V9.79077Z" fill="white"/>
<path d="M92.3748 9.78687H82.1025V46.3578H92.3748V9.78687Z" fill="white"/>
<path d="M151.746 32.419C151.739 31.2039 151.432 30.0255 150.886 28.9425C149.154 25.5101 146.339 23.7003 142.58 23.5424C139.898 23.4286 134.006 23.5167 134.006 23.5167L133.985 19.1371L150.43 19.1446V9.73933C150.43 9.73933 139.973 9.74666 135.007 9.73562C133.334 9.732 131.755 10.1027 130.298 10.9177C127.323 12.577 125.498 15.0697 125.216 18.5498C125.086 20.1724 125.133 21.8134 125.173 23.447C125.205 24.7318 125.516 25.9763 126.134 27.107C128.028 30.5761 130.995 32.2758 134.852 32.3822C137.238 32.4484 142.493 32.3933 142.493 32.3933V36.9381H125.668V46.3579C125.668 46.3579 136.833 46.3689 142.207 46.3469C142.898 46.3469 143.599 46.2514 144.272 46.101C148.262 45.2199 151.135 42.184 151.634 38.0944C151.861 36.2258 151.761 34.3096 151.75 32.4153" fill="white"/>
<path d="M66.6578 29.4417H57.3036V20.8185C57.3036 19.5409 58.3229 18.5057 59.5807 18.5057H64.3807C65.6385 18.5057 66.6578 19.5409 66.6578 20.8185V29.4417ZM75.0904 14.4308C73.1675 11.2848 70.2253 9.90441 66.7048 9.78696C63.4734 9.68056 60.2386 9.76127 57.0036 9.76498C55.8795 9.76498 54.7735 9.90812 53.7036 10.2825C50.1217 11.5307 47.4326 15.4037 47.4289 19.3721C47.4181 28.2376 47.4289 46.3615 47.4289 46.3615H57.3433V36.9416H66.7012V46.3542H76.3193C76.3193 46.3542 76.3193 23.6121 76.3193 19.4859C76.3193 17.6981 76.0301 15.969 75.0904 14.4345" fill="white"/>
<path d="M32.2519 25.4953C32.2519 26.7288 31.2652 27.731 30.0507 27.731H22.1857V18.2303H30.0507C31.2652 18.2303 32.2519 19.2325 32.2519 20.466V25.4953ZM41.3531 28.9388C42.6543 26.1231 42.8929 23.1348 42.5098 20.0878C41.9639 15.7377 39.7158 12.6026 35.8158 10.7231C34.1387 9.91539 32.382 9.47853 30.4881 9.49328C24.6218 9.54097 12.4158 9.51156 12.4158 9.51156V46.3614H22.1748V36.9453L30.6398 46.3688H45.0688C45.0688 46.3688 33.7411 34.7867 33.7953 34.7756C37.1748 34.0965 39.8929 32.1032 41.3531 28.9461" fill="white"/>
<path d="M155.093 46.2991L155.038 9.35376H169.063C168.221 16.4756 167.111 25.3632 166.164 32.2721H166.482C169.908 22.5805 171.491 18.1349 174.441 9.35376H186.831C186.304 18.0284 186.094 22.687 185.408 31.7875L185.726 31.8426C187.309 25.7927 190.207 15.7268 192.051 9.35376H205.337L189.628 46.2991H175.5C175.818 39.4453 176.556 33.1275 177.029 25.2017H176.819C174.448 32.3749 171.6 39.9813 169.229 46.2991H155.1H155.093Z" fill="white"/>
<path d="M237.047 24.618C237.047 34.3903 231.886 46.2954 216.152 46.2954C204.629 46.2954 200.468 39.1186 200.468 31.5379C200.468 20.8515 206.834 9.3501 221.06 9.3501C232.084 9.3501 237.043 16.2187 237.043 24.618H237.047ZM213.997 32.6061C213.997 35.0474 214.547 37.5437 217.305 37.5437C222.365 37.5437 223.818 26.5012 223.818 23.0908C223.818 20.9029 223.416 18.1018 220.561 18.1018C215.65 18.1018 213.997 28.7882 213.997 32.6061Z" fill="white"/>
<path d="M251.975 33.0173L249.286 46.2954H235.63L243.325 9.3501H261.567C270.792 9.3501 274.432 13.8472 274.432 18.8287C274.432 23.8103 271.479 27.3418 266.682 28.7882C269.794 29.9667 271.323 33.1788 270.163 38.6928C269.531 41.6369 268.952 45.0106 268.952 46.2954H255.824C255.614 44.7426 255.93 42.1729 256.826 37.8337C257.458 34.8345 257.458 33.0136 253.927 33.0136H251.975V33.0173ZM253.818 24.6657H256.189C258.929 24.6657 260.617 23.2744 260.617 20.5982C260.617 19.0453 259.879 17.7054 257.664 17.7054H255.239L253.814 24.6657H253.818Z" fill="white"/>
<path d="M279.625 9.35376H293.545L287.798 36.9306H302.982L299.556 46.2991H271.93L279.625 9.35376Z" fill="white"/>
<path d="M310.728 9.35376H326.175C337.352 9.35376 342.73 15.9947 342.73 24.8822C342.73 33.289 338.83 46.2991 320.534 46.2991H303.033L310.728 9.35376ZM318.741 37.305H321.59C326.599 37.305 328.338 27.9366 328.338 23.6525C328.338 20.1172 327.441 18.3515 324.488 18.3515H322.749L318.744 37.305H318.741Z" fill="white"/>
<path d="M354.81 10.6533C359.082 10.6533 361.049 12.6504 361.049 15.411C361.049 17.999 359.978 19.2068 356.823 20.8845C355.901 21.3765 354.105 22.3896 353.667 23.0798H360.148L358.619 27.2722H345.632L345.777 26.5819C346.601 22.6613 348.156 20.7376 351.727 18.5424C354.202 17.0152 355.077 16.5453 355.077 15.0916C355.077 14.574 354.86 14.2289 354.398 14.2289C353.667 14.2289 353.306 14.919 352.967 16.4719H347.552C348.015 13.9573 349.374 10.6533 354.81 10.6533ZM354.81 9.54834C352.088 9.54834 349.974 10.323 348.528 11.8538C347.494 12.9478 346.825 14.3904 346.482 16.2701C346.424 16.5931 346.507 16.9272 346.714 17.1768C346.919 17.4301 347.226 17.5769 347.548 17.5769H351.196L351.16 17.5989C347.205 20.0292 345.579 22.2391 344.715 26.3507L344.57 27.0409C344.501 27.3675 344.581 27.709 344.787 27.9659C344.993 28.2266 345.304 28.3771 345.632 28.3771H358.619C359.075 28.3771 359.48 28.0908 359.639 27.6575L361.168 23.4653C361.29 23.1275 361.243 22.7458 361.041 22.4521C360.839 22.1547 360.506 21.9785 360.148 21.9785H357.119C357.189 21.9418 357.257 21.9051 357.33 21.8647C360.513 20.1723 362.133 18.7076 362.133 15.4147C362.133 13.6525 361.467 12.1768 360.214 11.1416C358.93 10.088 357.112 9.55205 354.806 9.55205L354.81 9.54834Z" fill="white"/>
<path d="M370.189 10.4551C374.487 10.4551 376.5 12.8963 376.5 16.6188C376.5 20.3412 374.848 27.4667 367.883 27.4667C363.318 27.4667 361.644 24.8052 361.644 21.1782C361.644 16.8867 363.852 10.4514 370.189 10.4514M368.053 23.8654C368.83 23.8654 369.314 22.4337 370.045 18.9095C370.796 15.3339 371.017 14.027 370.092 14.027C369.459 14.027 368.928 14.7905 368.1 18.8361C367.323 22.5107 367.251 23.8654 368.053 23.8654ZM370.189 9.34644C366.986 9.34644 364.373 10.8221 362.624 13.6121C361.312 15.7083 360.556 18.4653 360.556 21.1782C360.556 23.3918 361.124 25.1539 362.245 26.4204C363.506 27.8484 365.403 28.5717 367.883 28.5717C371.317 28.5717 374.035 26.9968 375.744 24.0122C377.408 21.1084 377.588 17.8742 377.588 16.6188C377.588 14.4382 376.945 12.621 375.73 11.3655C374.436 10.0292 372.571 9.35005 370.186 9.35005L370.189 9.34644Z" fill="white"/>
<path d="M354.81 28.5755C359.082 28.5755 361.049 30.5724 361.049 33.3331C361.049 35.9212 359.978 37.1289 356.823 38.8066C355.901 39.2985 354.105 40.3117 353.667 41.0019H360.148L358.619 45.1942H345.632L345.777 44.5041C346.601 40.5834 348.156 38.6598 351.727 36.4645C354.202 34.9373 355.077 34.4674 355.077 33.0137C355.077 32.4961 354.86 32.151 354.398 32.151C353.667 32.151 353.306 32.8412 352.967 34.3941H347.552C348.015 31.8794 349.374 28.5755 354.81 28.5755ZM354.81 27.4705C352.088 27.4705 349.974 28.245 348.528 29.7759C347.494 30.8699 346.825 32.3126 346.482 34.1921C346.424 34.5152 346.507 34.8493 346.714 35.0988C346.919 35.3522 347.226 35.4991 347.548 35.4991H351.196L351.16 35.521C347.205 37.9513 345.579 40.1613 344.715 44.2728L344.57 44.9629C344.501 45.2896 344.581 45.631 344.787 45.888C344.993 46.1487 345.304 46.2992 345.632 46.2992H358.619C359.075 46.2992 359.48 46.0129 359.639 45.5796L361.168 41.3873C361.29 41.0496 361.243 40.6678 361.041 40.3742C360.839 40.0768 360.506 39.9006 360.148 39.9006H357.119C357.189 39.8638 357.257 39.8272 357.33 39.7867C360.513 38.0944 362.133 36.6297 362.133 33.3367C362.133 31.5747 361.467 30.0989 360.214 29.0637C358.93 28.0101 357.112 27.4742 354.806 27.4742L354.81 27.4705Z" fill="white"/>
<path d="M376.5 28.5753L374.606 37.4996H376.305L375.188 41.6662H373.756L373.103 44.8967H367.518L368.172 41.6662H361.085L361.862 37.9914L368.928 28.5716H376.504M370.265 32.4922C369.513 33.7991 368.104 35.9687 367.11 37.4959H369.029L369.246 36.5597C369.441 35.6456 369.95 33.6266 370.265 32.4922ZM376.504 27.4666H368.928C368.588 27.4666 368.27 27.6281 368.064 27.9034L360.998 37.3233C360.9 37.4518 360.831 37.6023 360.799 37.7602L360.021 41.4349C359.953 41.7617 360.033 42.103 360.238 42.36C360.445 42.6206 360.755 42.7712 361.085 42.7712H366.839L366.451 44.6727C366.387 44.9995 366.466 45.3372 366.673 45.5942C366.878 45.8511 367.189 46.0017 367.514 46.0017H373.099C373.615 46.0017 374.061 45.6346 374.165 45.1206L374.642 42.7712H375.188C375.68 42.7712 376.109 42.4371 376.236 41.9562L377.353 37.7896C377.443 37.4591 377.375 37.1031 377.169 36.8277C376.963 36.5561 376.645 36.3946 376.305 36.3946H375.951L377.559 28.8065C377.628 28.4798 377.548 28.1384 377.342 27.8814C377.136 27.6207 376.826 27.4703 376.496 27.4703L376.504 27.4666Z" fill="white"/>
</svg>
