<svg width="390" height="101" viewBox="0 0 390 101" fill="none" xmlns="http://www.w3.org/2000/svg">
<g clip-path="url(#clip0_545_5875)">
<path d="M139.03 38.3285H131.691V64.5702H127.071V38.3285H119.727V34.0566H139.03V38.3285Z" fill="white"/>
<path d="M155.327 46.8606H163.933V51.2238H155.327V60.2979H166.268V64.5641H150.701V34.0505H166.262V38.3225H155.327V46.8606Z" fill="white"/>
<path d="M193.445 64.5702H177.93V34.0566H182.505V60.2527H193.445V64.5702Z" fill="white"/>
<path d="M225.546 55.7356C225.546 62.6995 221.848 65.0607 215.386 65.0607C208.769 65.0607 205.123 62.5113 205.123 55.7356V42.8343C205.123 35.7678 208.769 33.6118 215.386 33.6118C221.95 33.6118 225.546 36.11 225.546 42.8343V55.7356ZM215.04 38.3287C211.246 38.3287 209.787 40.7811 209.787 44.4598V54.1729C209.787 58.1482 211.439 60.3041 215.04 60.3041H215.622C219.705 60.3041 220.92 57.8003 220.92 54.1729V44.4598C220.92 40.3876 219.026 38.3287 215.622 38.3287H215.04Z" fill="white"/>
<path d="M247.232 65.0606C243.342 65.0606 239.157 63.1956 237.749 59.5169L241.442 56.3287C241.442 56.3287 241.589 56.6252 241.684 56.8192C242.804 58.6842 244.699 60.3496 246.982 60.3496C249.465 60.3496 251.409 58.6329 251.409 56.2318C251.409 53.4827 248.927 52.2565 246.253 51.2298C244.258 50.4427 241.78 49.3191 239.882 47.6024C238.032 45.8857 237.207 44.072 237.207 41.9103C237.207 36.4634 242.555 33.6174 247.175 33.6174C251.019 33.6174 253.835 35.7277 255.492 39.2582L251.992 41.7108C250.438 39.6517 248.831 38.2315 246.497 38.2315C244.551 38.2315 242.17 39.2582 242.17 41.3685C242.17 44.1631 246.259 45.3895 248.64 46.5188C252.139 48.0872 256.663 50.8306 256.663 55.2508C256.663 56.6709 256.419 59.2717 254.96 61.4789C253.213 64.2223 250.103 65.0606 247.232 65.0606Z" fill="white"/>
<path d="M296.246 64.5702H280.73V34.0566H285.305V60.2527H296.246V64.5702Z" fill="white"/>
<path d="M322.749 57.4067H314.239L312.346 64.5702H307.822L315.897 34.0566H321.098L329.218 64.5702H324.695L322.749 57.4067ZM315.359 53.1918H321.731L318.424 41.3685L315.359 53.1918Z" fill="white"/>
<path d="M349.788 64.5702H340.793V34.0566H348.086C350.473 34.0566 353.147 34.1535 354.798 35.2828C355.725 35.876 356.354 36.7544 356.793 37.8323C357.185 38.8133 357.331 40.0395 357.331 41.511C357.331 43.3248 357.037 44.8475 356.115 46.513C357.478 47.7392 358.01 48.7659 358.4 50.0435C358.79 51.3153 358.983 52.9352 358.983 54.897C358.983 57.3496 358.739 61.3249 356.505 62.9447C354.408 64.4674 351.976 64.5702 349.788 64.5702ZM349.301 44.8989C351.395 44.8989 352.61 43.821 352.61 41.7619C352.61 39.013 350.274 38.6707 348.285 38.6707H345.417V44.8989H349.301ZM345.412 49.6042V60.0073H348.183C351.44 60.0073 354.312 58.3363 354.312 54.7545C354.312 51.8116 352.366 49.6042 349.256 49.6042H345.412Z" fill="white"/>
<path d="M380.57 65.0606C376.68 65.0606 372.495 63.1956 371.087 59.5169L374.779 56.3287C374.779 56.3287 374.927 56.6252 375.023 56.8192C376.142 58.6842 378.037 60.3496 380.321 60.3496C382.803 60.3496 384.749 58.6329 384.749 56.2318C384.749 53.4827 382.265 52.2565 379.591 51.2298C377.596 50.4427 375.118 49.3191 373.219 47.6024C371.37 45.8857 370.545 44.072 370.545 41.9103C370.545 36.4634 375.894 33.6174 380.513 33.6174C384.359 33.6174 387.173 35.7277 388.83 39.2582L385.33 41.7108C383.776 39.6517 382.169 38.2315 379.835 38.2315C377.889 38.2315 375.508 39.2582 375.508 41.3685C375.508 44.1631 379.597 45.3895 381.978 46.5188C385.477 48.0872 390.001 50.8306 390.001 55.2508C390.001 56.6709 389.757 59.2717 388.299 61.4789C386.547 64.2223 383.437 65.0606 380.57 65.0606Z" fill="white"/>
<path d="M43.6128 0.43149C9.34377 -4.48444 -4.20373 33.6149 1.12198 63.2614C2.37858 70.2616 4.77689 77.4232 9.99469 82.2093C15.0733 86.8656 22.042 88.613 28.4119 91.1955C35.8192 94.1957 42.8018 98.5256 50.6477 100.013C76.7854 104.964 95.7665 72.8195 96.4384 50.0083C97.2181 23.2427 66.952 3.77895 43.6128 0.43149ZM51.6361 42.145C51.5108 43.1942 51.4692 43.4539 51.4239 44.1134C51.2916 46.0573 51.1698 48.0013 51.0549 49.9452C50.8113 54.2049 50.7069 68.2055 50.4632 72.4652C50.4283 73.0337 50.4701 74.1634 50.2091 74.6091C49.9619 75.0301 49.5547 75.1074 48.9177 75.0547C48.2807 75.0022 48.2842 74.188 48.3051 73.767C48.4929 69.6546 48.58 55.798 48.8863 51.6927C49.043 49.5768 49.4188 47.482 49.6521 45.3696C49.6869 45.0609 49.9967 43.0222 49.7148 43.0257C49.1231 43.0327 48.66 44.6749 48.5208 44.9346C47.8456 46.2047 47.5914 47.1696 46.8257 48.3803C46.4288 49.0084 45.9067 50.7909 44.7441 50.2575C44.1489 49.9839 44.5875 48.6224 44.8764 47.9732C46.3836 44.5906 48.0439 41.2783 49.5616 37.8958C49.7809 37.4045 49.7113 36.6852 49.7809 35.9168C49.8505 35.1518 48.5417 36.6712 48.2493 37.0887C46.8814 39.0361 45.9033 40.187 44.4622 42.0784C44.2324 42.38 43.6964 42.6678 43.1847 42.7309C43.3344 42.9626 43.4631 43.1696 43.5536 43.3275C43.8705 43.8819 44.4587 45.1591 43.686 45.3942C42.9131 45.6293 42.2797 44.9977 41.8619 44.5029C40.8838 43.3381 39.9196 42.0081 39.0042 40.787C38.6874 40.366 37.6432 39.18 37.2672 39.2186C36.9574 39.2502 36.9365 40.1169 37.0062 41.3661C36.9714 44.4434 38.3881 45.4013 39.6864 47.1382C41.204 49.1662 42.7601 51.1663 44.1801 53.2611C44.4726 53.6926 44.8659 54.8611 44.2742 55.0997C43.6825 55.3383 42.8819 54.6436 42.4989 54.1629C40.9221 52.1909 39.481 50.1067 37.9495 48.0961C37.7127 47.7872 37.2742 46.924 36.9017 47.0925C36.6894 47.1907 36.672 47.7101 36.679 48.6189C36.6894 49.5311 36.3169 49.6715 37.8659 51.4506C39.415 53.5698 40.8559 55.4086 42.4503 57.4964C42.8087 57.963 43.6337 59.0648 43.6476 59.6437C43.6581 60.2262 43.7172 60.9561 43.0941 60.8683C42.4468 60.7771 41.7192 59.7806 41.4582 59.377C40.2607 57.5243 39.2096 56.4788 38.0434 54.6085C37.7371 54.1208 36.9818 53.3242 36.6894 53.0821C36.2439 52.7101 36.2786 53.5208 36.31 55.1173C36.5572 58.4578 36.7729 59.5666 38.7501 61.2438C40.5079 62.7351 42.0151 64.5526 43.498 66.3387C43.9156 66.8405 44.5284 68.0721 44.0341 68.4511C43.5398 68.83 42.2588 68.4755 41.8168 68.037C40.5149 66.7423 39.4359 65.2159 38.2767 63.7808C37.8485 63.2544 37.2916 62.6333 37.0062 62.1842C36.7208 61.735 36.4701 63.493 36.4387 64.1633C36.2786 67.3633 36.2368 70.5738 36.0629 73.7739C36.0385 74.2231 35.8888 74.9986 35.2449 75.0793C34.6009 75.1635 34.3676 74.0933 34.3711 73.6021C34.392 70.7669 34.58 67.9352 34.6357 65.1001C34.6462 64.5001 34.385 63.6299 34.1901 63.2895C33.9987 62.9526 33.2225 64.0579 32.9023 64.5526C31.844 66.1808 31.0016 67.1422 29.8426 68.6897C29.4213 69.251 28.0429 70.3528 27.4826 70.0617C26.3339 69.4615 27.9281 67.4651 28.3283 66.9246C30.0792 64.5526 31.214 63.2439 33.2851 61.1526C34.4025 59.921 34.5312 57.9138 34.6706 55.8155C34.6774 55.6962 34.6321 53.9488 34.6392 53.419C34.6462 52.8892 33.4243 55.0962 33.2225 55.4295C32.0425 57.3841 32.0808 56.7769 30.9112 58.7385C30.6571 59.163 29.0977 61.1034 28.586 61.8018C28.2518 62.2544 27.4408 63.2017 26.7132 62.8825C25.9857 62.5631 26.8977 61.3385 27.1205 60.9946C29.0002 58.121 30.9216 55.6156 32.6899 52.6752C33.6994 50.9943 34.9246 50.5523 34.9978 47.2889C35.0534 47.1487 35.1196 46.0538 35.022 45.7978C34.8236 45.2749 34.2319 46.5347 34.0613 46.7451C32.7108 48.4048 31.4577 50.1557 30.0201 51.7417C29.4666 52.3487 28.7357 53.1629 27.834 52.9243C26.9325 52.6857 27.7958 51.1066 28.4536 50.233C30.6536 47.2995 32.8326 44.3415 34.8689 41.2923C35.3701 40.5449 35.3458 39.0257 35.3493 38.6045C35.3527 38.1834 35.5059 37.6431 35.3423 37.4817C35.2832 37.4256 34.9837 37.5729 34.6809 37.9764C34.3746 38.3765 33.8491 39.1133 33.3304 39.801C31.9449 41.8363 30.7441 43.8153 29.3378 45.6363C29.028 46.0364 28.1961 46.5767 27.2911 45.9626C26.8698 45.6785 27.319 44.8153 27.5904 44.4293C29.6302 41.545 31.6909 38.6676 33.863 35.8852C34.4617 35.1167 35.673 34.208 36.2926 34.0816C36.9156 33.9553 37.7476 35.25 38.3255 35.9378C39.6168 37.4817 40.4801 39.3484 41.8027 40.8713C41.9872 41.0818 42.1787 41.3274 42.3702 41.5801C42.4606 41.3064 42.593 41.0502 42.7078 40.8993C44.5805 38.38 46.9823 35.4326 48.1415 34.3062C49.3005 33.1763 49.5303 28.9972 49.5547 27.9376C49.5756 26.8779 48.855 27.8674 48.6983 28.0849C47.4453 29.8499 46.5054 30.9798 45.3081 32.7868C44.8798 33.429 44.0271 34.5132 43.484 35.0466C43.042 35.4781 42.2726 36.3659 41.6706 35.9623C41.0683 35.5624 41.4234 34.422 41.761 33.9694C44.3055 30.5237 46.9962 27.1832 49.7183 23.8743C50.0767 23.4392 51.0549 23.0356 51.4552 23.2322C51.96 23.4778 52.1827 23.6077 52.7362 24.934C53.4845 26.7234 54.0693 27.7656 55.3295 29.1622C55.775 29.657 57.3344 31.6184 57.3448 32.3447C57.3623 33.6045 56.3563 33.9413 55.4999 32.8571C55.0335 32.271 54.2851 31.2324 53.9858 30.9692C53.6865 30.706 53.0913 30.0534 52.858 29.7937C52.3428 29.2218 52.1095 29.0359 51.577 28.4814C51.6188 29.3797 51.4725 31.9763 51.5735 32.871C51.6084 33.1868 52.496 34.2957 52.7048 34.5588C55.1345 37.601 56.9549 39.8221 59.3116 42.9205C59.6456 43.3625 60.0007 44.2081 59.2766 44.4608C58.8173 44.6222 57.9122 43.924 57.5327 43.4293C55.7402 41.0959 52.1201 35.9484 52.2071 36.8149C52.3637 38.3378 51.8311 38.794 52.9902 40.4502C54.3374 42.924 55.7262 45.3802 56.9445 47.917C57.1985 48.4504 57.8182 49.84 56.6765 50.0189C55.9874 50.1276 55.6182 49.0188 55.3433 48.4539C54.6019 46.917 53.8675 45.4995 53.1504 43.9486C52.8336 43.2467 51.7615 41.0959 51.6361 42.145ZM70.4049 58.128C69.7019 58.6122 69.1867 57.6507 68.8351 57.1454C68.024 55.9735 67.1504 54.6753 66.4716 53.4085C65.8208 52.1945 65.7441 51.9523 64.9923 50.8014C64.7904 50.4925 64.4736 49.4153 63.8924 49.3171C63.311 49.2224 63.2136 50.7137 63.2763 51.0681C63.5582 56.0156 64.1882 57.8789 66.7814 60.3806C67.0007 60.5455 68.5288 62.2579 69.1971 63.3737C69.6184 64.0754 70.0709 65.3843 69.4095 65.8229C68.7516 66.2614 67.6968 64.535 67.0669 63.928C66.1444 63.0369 65.1594 61.4158 64.6651 61.4298C64.1743 61.4474 64.4353 63.8439 64.4318 65.0509C64.4249 67.7247 64.491 70.395 64.5224 73.0687C64.5327 74.1564 64.3691 76.346 62.8933 75.1494C61.8769 74.3284 62.3015 71.9003 62.3051 70.3317C62.3154 66.458 62.493 62.5841 62.5348 58.7069C62.5382 58.2963 62.3851 57.2121 61.9465 57.0086C61.4522 56.7804 61.0346 58.3139 60.8187 58.8227C59.9101 60.9665 59.1271 63.1632 58.2011 65.3C57.7799 66.2755 57.129 67.493 55.8515 66.8405C55.218 66.293 55.667 65.0018 56.0395 64.2123C57.7486 60.6122 58.9147 58.3735 60.6934 54.8049C60.7839 54.619 61.205 53.826 61.588 52.9383C61.5984 51.6892 61.8629 50.5171 61.5183 49.7453C61.1773 48.9733 59.9277 51.5874 59.5343 52.2435C58.2115 54.433 57.0351 56.7174 55.6461 58.8578C55.3468 59.3174 54.7585 59.8753 53.7316 59.5596C52.7048 59.2437 53.3592 57.963 53.6621 57.4683C55.9247 53.7805 58.316 50.1768 60.6551 46.5347C61.574 45.1029 62.8132 44.945 64.129 46.545C65.8034 48.5838 67.1922 50.868 68.668 53.0717C69.3189 54.0471 69.8864 54.7805 70.3284 55.8542C70.5685 56.4296 71.1081 57.6436 70.4049 58.128Z" fill="white"/>
</g>
<defs>
<clipPath id="clip0_545_5875">
<rect width="390" height="101" fill="white"/>
</clipPath>
</defs>
</svg>
