<svg width="240" height="195" viewBox="0 0 240 195" fill="none" xmlns="http://www.w3.org/2000/svg">
<path d="M17.1416 171.232H10.6244V194.564H6.52226V171.232H0V167.434H17.1416V171.232Z" fill="white"/>
<path d="M31.6111 178.818H39.253V182.697H31.6111V190.765H41.3267V194.558H27.5039V167.429H41.3217V171.227H31.6111V178.818Z" fill="white"/>
<path d="M65.4631 194.563H51.6855V167.434H55.7475V190.725H65.4631V194.563Z" fill="white"/>
<path d="M93.9659 186.709C93.9659 192.9 90.6821 194.999 84.9432 194.999C79.0686 194.999 75.8301 192.733 75.8301 186.709V175.238C75.8301 168.955 79.0686 167.039 84.9432 167.039C90.7725 167.039 93.9659 169.26 93.9659 175.238V186.709ZM84.6369 171.232C81.2678 171.232 79.9724 173.413 79.9724 176.683V185.319C79.9724 188.853 81.4385 190.77 84.6369 190.77H85.154C88.7792 190.77 89.8587 188.544 89.8587 185.319V176.683C89.8587 173.063 88.1767 171.232 85.154 171.232H84.6369Z" fill="white"/>
<path d="M113.224 194.999C109.77 194.999 106.055 193.341 104.804 190.07L108.083 187.236C108.083 187.236 108.214 187.499 108.299 187.672C109.293 189.33 110.975 190.811 113.004 190.811C115.208 190.811 116.935 189.284 116.935 187.149C116.935 184.705 114.731 183.615 112.356 182.702C110.583 182.003 108.384 181.004 106.697 179.477C105.055 177.951 104.322 176.338 104.322 174.417C104.322 169.574 109.072 167.043 113.174 167.043C116.589 167.043 119.089 168.92 120.56 172.059L117.452 174.239C116.071 172.408 114.645 171.146 112.572 171.146C110.845 171.146 108.731 172.059 108.731 173.935C108.731 176.42 112.361 177.51 114.475 178.514C117.583 179.908 121.599 182.347 121.599 186.277C121.599 187.54 121.384 189.852 120.088 191.815C118.537 194.254 115.775 194.999 113.224 194.999Z" fill="white"/>
<path d="M156.748 194.564H142.971V167.434H147.033V190.725H156.748V194.564Z" fill="white"/>
<path d="M180.281 188.194H172.724L171.042 194.563H167.025L174.195 167.434H178.815L186.025 194.563H182.008L180.281 188.194ZM173.718 184.447H179.377L176.44 173.935L173.718 184.447Z" fill="white"/>
<path d="M204.295 194.563H196.307V167.434H202.784C204.903 167.434 207.278 167.52 208.744 168.524C209.567 169.052 210.124 169.833 210.516 170.791C210.862 171.663 210.993 172.753 210.993 174.062C210.993 175.674 210.732 177.028 209.914 178.509C211.124 179.599 211.596 180.512 211.942 181.648C212.288 182.779 212.459 184.219 212.459 185.963C212.459 188.144 212.243 191.678 210.26 193.118C208.397 194.472 206.238 194.563 204.295 194.563ZM203.863 177.074C205.721 177.074 206.801 176.115 206.801 174.285C206.801 171.841 204.727 171.536 202.959 171.536H200.414V177.074H203.863ZM200.409 181.257V190.507H202.869C205.761 190.507 208.312 189.021 208.312 185.836C208.312 183.22 206.585 181.257 203.823 181.257H200.409Z" fill="white"/>
<path d="M231.623 195C228.168 195 224.453 193.342 223.203 190.071L226.481 187.236C226.481 187.236 226.612 187.5 226.697 187.672C227.691 189.33 229.374 190.811 231.402 190.811C233.606 190.811 235.333 189.285 235.333 187.15C235.333 184.706 233.129 183.616 230.754 182.703C228.982 182.003 226.783 181.004 225.096 179.478C223.454 177.951 222.721 176.339 222.721 174.417C222.721 169.574 227.471 167.044 231.573 167.044C234.987 167.044 237.487 168.92 238.959 172.059L235.851 174.24C234.47 172.409 233.044 171.146 230.97 171.146C229.243 171.146 227.129 172.059 227.129 173.935C227.129 176.42 230.759 177.51 232.873 178.514C235.981 179.909 239.998 182.348 239.998 186.278C239.998 187.54 239.782 189.853 238.487 191.815C236.93 194.254 234.169 195 231.623 195Z" fill="white"/>
<path d="M112.91 0.62357C63.478 -6.48073 43.9363 48.5789 51.6184 91.4227C53.431 101.539 56.8904 111.889 64.4169 118.805C71.7425 125.535 81.7945 128.06 90.9829 131.792C101.668 136.128 111.74 142.385 123.057 144.535C160.76 151.69 188.139 105.236 189.108 72.27C190.233 33.5893 146.575 5.46119 112.91 0.62357ZM124.483 60.9062C124.302 62.4224 124.242 62.7976 124.177 63.7509C123.986 66.5602 123.81 69.3695 123.644 72.1787C123.293 78.3348 123.142 98.5676 122.791 104.724C122.741 105.545 122.801 107.178 122.424 107.822C122.068 108.43 121.48 108.542 120.562 108.466C119.643 108.39 119.648 107.213 119.678 106.605C119.949 100.662 120.075 80.637 120.516 74.704C120.742 71.6463 121.285 68.619 121.621 65.5663C121.671 65.1201 122.118 62.1739 121.711 62.179C120.858 62.1891 120.19 64.5623 119.989 64.9375C119.015 66.7732 118.649 68.1677 117.544 69.9171C116.972 70.8248 116.218 73.4008 114.541 72.63C113.683 72.2345 114.315 70.267 114.732 69.3289C116.906 64.4406 119.301 59.6537 121.49 54.7653C121.807 54.0554 121.706 53.0159 121.807 51.9054C121.907 50.7999 120.019 52.9956 119.598 53.599C117.624 56.4134 116.213 58.0766 114.135 60.8098C113.803 61.2459 113.03 61.6617 112.292 61.753C112.508 62.0877 112.694 62.3869 112.824 62.6151C113.281 63.4163 114.13 65.262 113.015 65.6018C111.9 65.9415 110.987 65.0288 110.384 64.3138C108.973 62.6303 107.582 60.7084 106.262 58.9437C105.805 58.3352 104.299 56.6213 103.756 56.6771C103.309 56.7227 103.279 57.9752 103.38 59.7804C103.33 64.2276 105.373 65.6119 107.246 68.122C109.435 71.053 111.679 73.9434 113.728 76.9707C114.15 77.5944 114.717 79.283 113.864 79.6278C113.01 79.9727 111.855 78.9686 111.303 78.2739C109.028 75.4241 106.95 72.412 104.74 69.5064C104.399 69.0601 103.766 67.8127 103.229 68.0561C102.923 68.1981 102.898 68.9486 102.908 70.2619C102.923 71.5804 102.386 71.7832 104.62 74.3541C106.854 77.4169 108.933 80.0741 111.233 83.0913C111.75 83.7657 112.94 85.3579 112.96 86.1946C112.975 87.0364 113.06 88.0911 112.161 87.9644C111.228 87.8325 110.178 86.3924 109.802 85.8092C108.074 83.1318 106.558 81.6207 104.876 78.9179C104.434 78.2131 103.345 77.062 102.923 76.7121C102.28 76.1746 102.33 77.3459 102.376 79.6532C102.732 84.4807 103.043 86.0831 105.895 88.507C108.431 90.6621 110.605 93.2888 112.744 95.8699C113.346 96.595 114.23 98.3749 113.517 98.9225C112.804 99.4702 110.956 98.958 110.319 98.3242C108.441 96.453 106.884 94.2472 105.212 92.1732C104.595 91.4126 103.791 90.515 103.38 89.8659C102.968 89.2169 102.607 91.7574 102.561 92.7259C102.33 97.3506 102.27 101.99 102.019 106.615C101.984 107.264 101.768 108.385 100.839 108.501C99.9102 108.623 99.5738 107.076 99.5789 106.367C99.609 102.269 99.8801 98.1771 99.9604 94.0798C99.9755 93.2127 99.5989 91.9551 99.3178 91.4633C99.0416 90.9765 97.9219 92.5738 97.46 93.2888C95.9336 95.6417 94.7185 97.0311 93.0466 99.2673C92.439 100.079 90.4507 101.671 89.6423 101.25C87.9854 100.383 90.285 97.4976 90.8624 96.7167C93.388 93.2888 95.0248 91.3974 98.0123 88.3751C99.624 86.5952 99.8098 83.6947 100.011 80.6623C100.021 80.4899 99.9554 77.9646 99.9655 77.1989C99.9755 76.4332 98.2132 79.6228 97.9219 80.1045C96.2198 82.929 96.275 82.0517 94.588 84.8863C94.2215 85.4999 91.9721 88.3041 91.234 89.3132C90.752 89.9674 89.5821 91.3365 88.5327 90.8751C87.4833 90.4136 88.7988 88.6439 89.1201 88.1469C91.8315 83.9939 94.6031 80.3733 97.1537 76.1239C98.6098 73.6949 100.377 73.056 100.483 68.3401C100.563 68.1372 100.658 66.5551 100.518 66.185C100.232 65.4294 99.378 67.2498 99.132 67.5541C97.1838 69.9526 95.3763 72.483 93.3026 74.775C92.5043 75.6523 91.4499 76.8287 90.1494 76.4839C88.849 76.1391 90.0942 73.8572 91.0432 72.5945C94.2164 68.3553 97.3596 64.0805 100.297 59.6739C101.02 58.5938 100.985 56.3982 100.99 55.7896C100.995 55.1811 101.216 54.4002 100.98 54.167C100.894 54.0858 100.463 54.2988 100.026 54.882C99.5839 55.46 98.8257 56.5249 98.0776 57.5188C96.0792 60.4599 94.347 63.3199 92.3185 65.9517C91.8716 66.5298 90.6716 67.3107 89.3662 66.4233C88.7586 66.0125 89.4063 64.7651 89.798 64.2073C92.7403 60.039 95.7127 55.8809 98.8458 51.8597C99.7094 50.7492 101.457 49.4358 102.35 49.2533C103.249 49.0707 104.449 50.9419 105.283 51.9358C107.145 54.167 108.391 56.8647 110.299 59.0654C110.565 59.3697 110.841 59.7247 111.117 60.0898C111.248 59.6942 111.438 59.3241 111.604 59.106C114.305 55.4651 117.77 51.2056 119.442 49.5778C121.114 47.945 121.445 41.9056 121.48 40.3742C121.511 38.8428 120.471 40.2728 120.245 40.5872C118.438 43.1378 117.082 44.7706 115.355 47.3821C114.737 48.3101 113.507 49.877 112.724 50.6478C112.086 51.2715 110.976 52.5544 110.108 51.9713C109.239 51.3932 109.751 49.7452 110.238 49.091C113.909 44.1114 117.79 39.2839 121.716 34.5021C122.234 33.8733 123.644 33.2902 124.222 33.5741C124.95 33.9291 125.271 34.1167 126.07 36.0335C127.149 38.6197 127.993 40.1257 129.81 42.1439C130.453 42.8589 132.702 45.6935 132.717 46.7432C132.742 48.5636 131.291 49.0505 130.056 47.4836C129.383 46.6367 128.304 45.1357 127.872 44.7554C127.44 44.3751 126.582 43.4319 126.245 43.0567C125.502 42.2301 125.166 41.9614 124.398 41.1602C124.458 42.4583 124.247 46.2108 124.393 47.5038C124.443 47.9602 125.723 49.5626 126.024 49.9429C129.529 54.3394 132.155 57.5492 135.554 62.0268C136.036 62.6658 136.548 63.8878 135.504 64.2529C134.841 64.4862 133.536 63.4771 132.988 62.7621C130.403 59.39 125.181 51.951 125.306 53.2035C125.532 55.4043 124.764 56.0635 126.436 58.4569C128.379 62.0319 130.383 65.5815 132.14 69.2478C132.506 70.0185 133.4 72.0266 131.753 72.2852C130.759 72.4424 130.227 70.84 129.83 70.0236C128.761 67.8026 127.701 65.7539 126.667 63.5126C126.21 62.4984 124.664 59.39 124.483 60.9062ZM151.556 84.004C150.542 84.7038 149.799 83.3144 149.292 82.5842C148.122 80.8905 146.861 79.0143 145.882 77.1837C144.943 75.4292 144.833 75.0793 143.748 73.416C143.457 72.9698 143 71.413 142.162 71.271C141.323 71.1341 141.183 73.2892 141.273 73.8014C141.68 80.9513 142.589 83.644 146.329 87.2595C146.646 87.4978 148.85 89.9724 149.814 91.585C150.421 92.5992 151.074 94.4906 150.12 95.1244C149.171 95.7583 147.65 93.2634 146.741 92.3862C145.41 91.0982 143.989 88.7554 143.276 88.7757C142.569 88.8011 142.945 92.2645 142.94 94.0089C142.93 97.8729 143.025 101.732 143.071 105.596C143.086 107.168 142.85 110.332 140.721 108.603C139.255 107.416 139.867 103.907 139.872 101.641C139.887 96.0423 140.143 90.444 140.204 84.8407C140.209 84.2474 139.988 82.6805 139.355 82.3864C138.642 82.0568 138.04 84.2728 137.728 85.008C136.418 88.1064 135.288 91.2807 133.953 94.3689C133.345 95.7786 132.406 97.5382 130.563 96.595C129.65 95.8039 130.297 93.9379 130.834 92.7969C133.3 87.5942 134.982 84.359 137.548 79.2019C137.678 78.9331 138.286 77.7871 138.838 76.5042C138.853 74.699 139.235 73.0053 138.738 71.8897C138.245 70.7741 136.443 74.5519 135.876 75.5002C133.968 78.6644 132.27 81.9655 130.267 85.0588C129.835 85.723 128.987 86.5293 127.506 86.0729C126.024 85.6166 126.968 83.7657 127.405 83.0507C130.669 77.7212 134.118 72.5134 137.492 67.2498C138.818 65.1809 140.605 64.9527 142.503 67.265C144.918 70.2112 146.922 73.5124 149.051 76.6969C149.99 78.1066 150.808 79.1664 151.446 80.7181C151.792 81.5497 152.57 83.3042 151.556 84.004Z" fill="white"/>
</svg>
