<svg width="32" height="24" viewBox="0 0 32 24" fill="none" xmlns="http://www.w3.org/2000/svg">
<g id="twitter-seeklogo 1" clip-path="url(#clip0_369_872)">
<g id="Group">
<path id="Vector" d="M31.1665 2.92234C30.0259 3.40202 28.8001 3.72622 27.5136 3.87203C28.8268 3.12557 29.8352 1.94362 30.3101 0.535319C29.0812 1.2264 27.7201 1.72834 26.2714 1.99888C25.1112 0.82672 23.4583 0.0942383 21.6291 0.0942383C18.1165 0.0942383 15.2688 2.79459 15.2688 6.12528C15.2688 6.59797 15.3252 7.0583 15.4336 7.4997C10.1478 7.2482 5.46142 4.84709 2.32456 1.19823C1.77711 2.08899 1.46347 3.12503 1.46347 4.23031C1.46347 6.3227 2.58638 8.16874 4.29292 9.25026C3.25029 9.21897 2.26968 8.94768 1.41211 8.49595C1.41165 8.52111 1.41165 8.54638 1.41165 8.57176C1.41165 11.4939 3.60396 13.9316 6.51346 14.4856C5.97973 14.6234 5.41787 14.6971 4.83776 14.6971C4.42797 14.6971 4.02951 14.6594 3.64126 14.5889C4.45053 16.9851 6.79932 18.7288 9.58239 18.7775C7.40573 20.395 4.66337 21.3592 1.68368 21.3592C1.17036 21.3592 0.664064 21.3307 0.166504 21.275C2.9811 22.9862 6.32421 23.9846 9.91587 23.9846C21.6142 23.9846 28.0113 14.7945 28.0113 6.82464C28.0113 6.56313 28.0052 6.30302 27.9929 6.04442C29.2355 5.19408 30.3138 4.13181 31.1665 2.92234Z" fill="white"/>
</g>
</g>
<defs>
<clipPath id="clip0_369_872">
<rect width="31" height="24" fill="white" transform="translate(0.166504)"/>
</clipPath>
</defs>
</svg>
