<svg width="24" height="24" viewBox="0 0 24 24" fill="inherit" xmlns="http://www.w3.org/2000/svg">
<g id="User/Person">
<g id="Icon">
<path fill-rule="evenodd" clip-rule="evenodd" d="M19.5801 16.71L19.8201 17.85C20.0475 18.8356 19.823 19.8713 19.2077 20.6742C18.5925 21.4771 17.6509 21.9633 16.6401 22H7.36009C6.34927 21.9633 5.40766 21.4771 4.79244 20.6742C4.17722 19.8713 3.95266 18.8356 4.18009 17.85L4.42009 16.71C4.69613 15.1668 6.02272 14.0327 7.59009 14H16.4101C17.9775 14.0327 19.3041 15.1668 19.5801 16.71ZM16.6401 20.49C17.1479 20.4841 17.6258 20.2489 17.9401 19.85V19.86C18.3258 19.3762 18.4761 18.7458 18.3501 18.14L18.1101 17C17.9769 16.1552 17.2647 15.5226 16.4101 15.49H7.5901C6.73546 15.5226 6.02326 16.1552 5.8901 17L5.6501 18.14C5.52725 18.7426 5.67736 19.3687 6.0601 19.85C6.37443 20.2489 6.85231 20.4841 7.3601 20.49H16.6401Z" fill="inherit"/>
<path fill-rule="evenodd" clip-rule="evenodd" d="M12.5001 12H11.5001C9.29094 12 7.50008 10.2092 7.50008 8.00001V5.36001C7.49741 4.46807 7.85056 3.61189 8.48126 2.98119C9.11196 2.35049 9.96814 1.99735 10.8601 2.00001H13.1401C14.032 1.99735 14.8882 2.35049 15.5189 2.98119C16.1496 3.61189 16.5027 4.46807 16.5001 5.36001V8.00001C16.5001 10.2092 14.7092 12 12.5001 12ZM10.8601 3.50002C9.83283 3.50002 9.00008 4.33277 9.00008 5.36001V8.00001C9.00008 9.38073 10.1194 10.5 11.5001 10.5H12.5001C13.8808 10.5 15.0001 9.38073 15.0001 8.00001V5.36001C15.0001 4.86671 14.8041 4.39361 14.4553 4.0448C14.1065 3.69598 13.6334 3.50002 13.1401 3.50002H10.8601Z" fill="inherit"/>
</g>
</g>
</svg>
