<svg width="25" height="24" viewBox="0 0 25 24" fill="inherit" xmlns="http://www.w3.org/2000/svg">
<path fill-rule="evenodd" clip-rule="evenodd" d="M21.7081 15.48C21.2639 15.1 21.0081 14.5446 21.0081 13.96V9.14C21.0081 5.19 17.4281 2 13.0081 2C8.58813 2 5.00813 5.19 5.00813 9.14V13.96C5.00817 14.5446 4.75241 15.1 4.30813 15.48C2.79813 16.83 3.86813 19.13 6.00813 19.13H9.80813C10.293 20.4804 11.5733 21.3811 13.0081 21.3811C14.4429 21.3811 15.7233 20.4804 16.2081 19.13H20.0081C22.1481 19.13 23.2181 16.83 21.7081 15.48ZM13.0081 19.88C12.4129 19.8778 11.852 19.601 11.4881 19.13H14.4881C14.1358 19.5936 13.5903 19.87 13.0081 19.88ZM20.0181 17.63C20.3817 17.6629 20.7278 17.468 20.8881 17.14C20.966 16.9424 20.8951 16.7173 20.7181 16.6C19.9647 15.9279 19.5291 14.9696 19.5181 13.96V9.14C19.5181 6.03 16.5981 3.5 13.0181 3.5C9.43813 3.5 6.51813 6.03 6.51813 9.14V13.96C6.50716 14.9696 6.07157 15.9279 5.31813 16.6C5.13745 16.7144 5.06221 16.9401 5.13813 17.14C5.29843 17.468 5.64457 17.6629 6.00813 17.63H20.0181Z" fill="inherit"/>
</svg>
