<svg width="14" height="18" viewBox="0 0 14 18" fill="inherit" xmlns="http://www.w3.org/2000/svg">
<path fill-rule="evenodd" clip-rule="evenodd" d="M3.37574 0.00433852H10.6242C11.4759 -0.0391886 12.3105 0.246203 12.9438 0.797528C13.5771 1.34885 13.9571 2.12079 14 2.94297V16.9964C14.0012 17.2778 13.8794 17.5467 13.6645 17.737C13.4497 17.9273 13.1617 18.0213 12.8713 17.9959C12.6168 17.996 12.3694 17.9152 12.1671 17.766L7.68342 14.4776C7.26002 14.1711 6.67784 14.1711 6.25443 14.4776L1.81213 17.766C1.61556 17.9111 1.37609 17.9916 1.1287 17.9959C0.838317 18.0213 0.550321 17.9273 0.33547 17.737C0.12062 17.5467 -0.00117493 17.2778 8.54527e-06 16.9964V2.94297C0.0428331 2.12079 0.422845 1.34885 1.05618 0.797528C1.68951 0.246203 2.52409 -0.0391886 3.37574 0.00433852ZM8.64644 13.2881L12.426 16.0868L12.4053 2.94297C12.3073 2.07153 11.5087 1.43359 10.6035 1.50364H3.35503C2.44984 1.43359 1.65125 2.07153 1.55326 2.94297V16.0868L5.33284 13.2881C6.31151 12.5683 7.66776 12.5683 8.64644 13.2881Z" fill="inherit"/>
</svg>
