<svg width="14" height="19" viewBox="0 0 14 19" fill="none" xmlns="http://www.w3.org/2000/svg">
<path d="M11.77 17.7843L7.48 14.4943C7.07224 14.1843 6.50776 14.1843 6.1 14.4943L1.77 17.7843C1.45424 18.0381 1.02377 18.0959 0.652275 17.9343C0.280782 17.7727 0.0295672 17.4184 0 17.0143V2.95431C0.0387838 2.12998 0.404652 1.35513 1.01656 0.80141C1.62847 0.247691 2.4359 -0.0391904 3.26 0.0043149H10.26C11.0891 -0.0335703 11.8987 0.262563 12.5077 0.826425C13.1166 1.39029 13.4741 2.17479 13.5 3.00431V17.0143C13.4611 17.4038 13.2163 17.7426 12.8586 17.9017C12.501 18.0609 12.0855 18.0161 11.77 17.7843Z" fill="#CB0C1C"/>
</svg>
