<svg width="16" height="16" viewBox="0 0 16 16" fill="inherit" xmlns="http://www.w3.org/2000/svg">
<g id="Interface essential/Calendar">
<g id="Icon">
<path d="M10.9997 5.43984H4.99967C4.72353 5.43984 4.49967 5.66369 4.49967 5.93984C4.49967 6.21598 4.72353 6.43984 4.99967 6.43984H10.9997C11.2758 6.43984 11.4997 6.21598 11.4997 5.93984C11.4997 5.66369 11.2758 5.43984 10.9997 5.43984Z" fill="inherit"/>
<path fill-rule="evenodd" clip-rule="evenodd" d="M11.2597 2.37984H11.333C13.174 2.37984 14.6663 3.87222 14.6663 5.71317V11.7132C14.6663 13.5541 13.174 15.0465 11.333 15.0465H4.66634C3.78229 15.0465 2.93444 14.6953 2.30932 14.0702C1.6842 13.4451 1.33301 12.5972 1.33301 11.7132V5.71317C1.33301 3.87222 2.82539 2.37984 4.66634 2.37984H4.72634V1.1665C4.72634 0.890362 4.9502 0.666504 5.22634 0.666504C5.50248 0.666504 5.72634 0.890362 5.72634 1.1665V2.37984H10.2597V1.1665C10.2597 0.890362 10.4835 0.666504 10.7597 0.666504C11.0358 0.666504 11.2597 0.890362 11.2597 1.1665V2.37984ZM11.333 14.0465C12.6217 14.0465 13.6663 13.0018 13.6663 11.7132V5.71317C13.6663 4.42451 12.6217 3.37984 11.333 3.37984H4.66634C3.37768 3.37984 2.33301 4.42451 2.33301 5.71317V11.7132C2.33301 13.0018 3.37768 14.0465 4.66634 14.0465H11.333Z" fill="inherit"/>
</g>
</g>
</svg>
