<svg width="24" height="25" viewBox="0 0 24 25" fill="inherit" xmlns="http://www.w3.org/2000/svg">
<g id="Arrows-chevron/Chevron-Left">
<path id="Icon" d="M15.9999 22.0001C15.6025 21.9987 15.2216 21.8406 14.9399 21.5601L6.93993 13.5601C6.65656 13.2802 6.49707 12.8984 6.49707 12.5001C6.49707 12.1018 6.65656 11.72 6.93993 11.4401L14.9399 3.4401C15.3139 3.0388 15.877 2.87361 16.4085 3.00933C16.94 3.14506 17.355 3.56006 17.4907 4.09153C17.6264 4.62299 17.4612 5.18616 17.0599 5.5601L10.1199 12.5001L17.0599 19.4401C17.3433 19.72 17.5028 20.1018 17.5028 20.5001C17.5028 20.8984 17.3433 21.2802 17.0599 21.5601C16.7783 21.8406 16.3974 21.9987 15.9999 22.0001Z" fill="inherit"/>
</g>
</svg>
