<svg width="16" height="16" viewBox="0 0 16 16" fill="inherit" xmlns="http://www.w3.org/2000/svg">
<g id="Interface essential/Clock">
<g id="Icon">
<path d="M5.76634 5.06016C5.56933 4.87659 5.26234 4.88201 5.07193 5.07242C4.88152 5.26282 4.8761 5.56982 5.05967 5.76683L7.57968 8.28683V11.4135C7.57968 11.6896 7.80353 11.9135 8.07967 11.9135C8.35582 11.9135 8.57967 11.6896 8.57967 11.4135V8.08016C8.57956 7.9476 8.5268 7.82051 8.43301 7.72683L5.76634 5.06016Z" fill="inherit"/>
<path fill-rule="evenodd" clip-rule="evenodd" d="M6.66634 1.3335H9.49301C10.9075 1.3335 12.264 1.8954 13.2642 2.89559C14.2644 3.89579 14.8263 5.25234 14.8263 6.66683V9.4935C14.8263 12.439 12.4385 14.8268 9.49301 14.8268H6.66634C3.72082 14.8268 1.33301 12.439 1.33301 9.4935V6.66683C1.33301 3.72131 3.72082 1.3335 6.66634 1.3335ZM9.49301 13.8268C11.8847 13.8232 13.8227 11.8852 13.8263 9.4935V6.66683C13.8227 4.27512 11.8847 2.33717 9.49301 2.3335H6.66634C4.27463 2.33717 2.33668 4.27512 2.33301 6.66683V9.4935C2.33668 11.8852 4.27463 13.8232 6.66634 13.8268H9.49301Z" fill="inherit"/>
</g>
</g>
</svg>
