<svg xmlns="http://www.w3.org/2000/svg" width="16" height="16" viewBox="0 0 16 16" fill="inherit">
  <path d="M13.1462 12.2605L8.88367 8.00032L13.1462 3.77151C13.3598 3.5241 13.3482 3.15282 13.1196 2.91938C12.891 2.68593 12.5225 2.66902 12.2737 2.88057L7.99876 7.07802L3.79855 2.8492C3.55549 2.60593 3.16294 2.60593 2.91988 2.8492C2.8019 2.96701 2.73554 3.12737 2.73554 3.29467C2.73554 3.46196 2.8019 3.62233 2.91988 3.74014L7.11385 7.96268L2.85133 12.1852C2.73335 12.303 2.66699 12.4634 2.66699 12.6307C2.66699 12.798 2.73335 12.9584 2.85133 13.0762C2.96893 13.1936 3.12814 13.2591 3.29378 13.2581C3.45638 13.2591 3.61293 13.1961 3.73 13.0824L7.99876 8.84734L12.2737 13.1515C12.3913 13.2689 12.5506 13.3344 12.7162 13.3334C12.8797 13.3327 13.0363 13.2674 13.1524 13.1515C13.2696 13.0328 13.3348 12.872 13.3336 12.7047C13.3325 12.5374 13.265 12.3775 13.1462 12.2605Z" fill="inherit" fill-opacity="0.7"/>
</svg>
