<svg width="14" height="14" viewBox="0 0 14 14" fill="none" xmlns="http://www.w3.org/2000/svg">
<path d="M3.11348 10.9999C3.38803 10.2231 4.12886 9.66658 4.99967 9.66658C5.87047 9.66658 6.61134 10.2231 6.88587 10.9999H13.6663V12.3333H6.88587C6.61134 13.1101 5.87047 13.6666 4.99967 13.6666C4.12886 13.6666 3.38803 13.1101 3.11348 12.3333H0.333008V10.9999H3.11348ZM7.11347 6.33325C7.38801 5.55646 8.12887 4.99992 8.99967 4.99992C9.87047 4.99992 10.6113 5.55646 10.8859 6.33325H13.6663V7.66658H10.8859C10.6113 8.44339 9.87047 8.99992 8.99967 8.99992C8.12887 8.99992 7.38801 8.44339 7.11347 7.66658H0.333008V6.33325H7.11347ZM3.11348 1.66659C3.38803 0.889792 4.12886 0.333252 4.99967 0.333252C5.87047 0.333252 6.61134 0.889792 6.88587 1.66659H13.6663V2.99992H6.88587C6.61134 3.77671 5.87047 4.33325 4.99967 4.33325C4.12886 4.33325 3.38803 3.77671 3.11348 2.99992H0.333008V1.66659H3.11348Z" fill="#CB0C1C"/>
</svg>
