<svg width="18" height="13" viewBox="0 0 18 13" fill="none" xmlns="http://www.w3.org/2000/svg">
  <path fill-rule="evenodd" clip-rule="evenodd"
        d="M10.7691 4.61792C11.6701 4.59628 12.4749 4.04908 12.8263 3.21925C12.9013 3.25087 12.9815 3.2683 13.0629 3.27067H17.1771C17.6032 3.27067 17.9486 2.92534 17.9486 2.49935C17.9486 2.07336 17.6032 1.72802 17.1771 1.72802H13.1143C13.0699 1.72221 13.025 1.72221 12.9806 1.72802C12.686 0.570625 11.5523 -0.166973 10.3746 0.0324988C9.19695 0.231971 8.3695 1.30174 8.47256 2.49158C8.57563 3.68142 9.5747 4.59301 10.7691 4.58707V4.61792ZM10.7691 1.58404C11.1838 1.58404 11.52 1.92017 11.52 2.3348C11.52 2.74943 11.1838 3.08556 10.7691 3.08556C10.3545 3.08556 10.0183 2.74943 10.0183 2.3348C10.0183 1.92017 10.3545 1.58404 10.7691 1.58404Z"
        fill="currentColor"/>
  <path d="M0.771429 1.72802H6.94286C7.36891 1.72802 7.71429 2.07336 7.71429 2.49935C7.71429 2.92534 7.36891 3.27067 6.94286 3.27067H0.771429C0.34538 3.27067 0 2.92534 0 2.49935C0 2.07336 0.34538 1.72802 0.771429 1.72802Z"
        fill="currentColor"/>
  <path fill-rule="evenodd" clip-rule="evenodd"
        d="M2.736 9.95549C3.05818 9.04436 3.91918 8.43473 4.88571 8.43341V8.41284C6.04884 8.41136 7.02895 9.28058 7.1663 10.4354C7.30366 11.5902 6.55477 12.6651 5.42374 12.9364C4.29271 13.2077 3.13762 12.5896 2.736 11.4981H0.771429C0.34538 11.4981 0 11.1528 0 10.7268C0 10.3008 0.34538 9.95549 0.771429 9.95549H2.736ZM4.1361 10.7809C4.14317 11.19 4.47652 11.5181 4.88571 11.5187V11.4776C5.3004 11.4776 5.63657 11.1414 5.63657 10.7268C5.61415 10.3183 5.26871 10.0029 4.85978 10.0177C4.45086 10.0324 4.12903 10.3718 4.1361 10.7809Z"
        fill="currentColor"/>
  <path d="M9 9.95549H17.2286C17.6546 9.95549 18 10.3008 18 10.7268C18 11.1528 17.6546 11.4981 17.2286 11.4981H9C8.57395 11.4981 8.22857 11.1528 8.22857 10.7268C8.22857 10.3008 8.57395 9.95549 9 9.95549Z"
        fill="currentColor"/>
</svg>