<svg width="25" height="24" viewBox="0 0 25 24" fill="inherit" xmlns="http://www.w3.org/2000/svg">
<g id="Interface essential/Information-circle">
<g id="Icon">
<path d="M11.9912 8.04C11.6076 8.08421 11.3182 8.40894 11.3182 8.795C11.3182 9.18106 11.6076 9.50579 11.9912 9.55C12.1927 9.5528 12.3866 9.47329 12.5282 9.32985C12.6697 9.18641 12.7466 8.99145 12.7412 8.79C12.7358 8.37804 12.4031 8.04539 11.9912 8.04Z" fill="inherit"/>
<path d="M11.9912 10.92C11.7914 10.9173 11.5991 10.9954 11.4578 11.1367C11.3166 11.2779 11.2385 11.4703 11.2412 11.67V14.79C11.2412 15.2042 11.577 15.54 11.9912 15.54C12.4054 15.54 12.7412 15.2042 12.7412 14.79V11.69C12.7466 11.4876 12.6699 11.2917 12.5287 11.1467C12.3875 11.0017 12.1936 10.9199 11.9912 10.92Z" fill="inherit"/>
<path fill-rule="evenodd" clip-rule="evenodd" d="M11.9912 2C6.58659 2.00551 2.20668 6.38542 2.20117 11.79C2.20117 17.1969 6.5843 21.58 11.9912 21.58C17.398 21.58 21.7812 17.1969 21.7812 11.79C21.7757 6.38542 17.3958 2.00551 11.9912 2ZM11.9912 20.08C7.41273 20.08 3.70117 16.3684 3.70117 11.79C3.70117 7.21156 7.41273 3.5 11.9912 3.5C16.5696 3.5 20.2812 7.21156 20.2812 11.79C20.2757 16.3662 16.5673 20.0745 11.9912 20.08Z" fill="inherit"/>
</g>
</g>
</svg>
