<svg width="16" height="16" viewBox="0 0 16 16" fill="inherit" xmlns="http://www.w3.org/2000/svg">
<g id="Interface essential/Location">
<g id="Icon">
<path d="M11.213 10.3235C10.9698 10.2013 10.6734 10.2961 10.5463 10.5368C10.4289 10.7821 10.526 11.0763 10.7663 11.2035C11.353 11.5035 11.6863 11.8702 11.6863 12.2235C11.6863 12.9768 10.113 13.8168 8.00634 13.8168C5.89967 13.8168 4.31967 12.9835 4.31967 12.2502C4.31967 11.9035 4.65301 11.5302 5.23967 11.2302C5.41561 11.1596 5.53653 10.9956 5.55194 10.8067C5.56735 10.6178 5.47461 10.4364 5.31243 10.3383C5.15026 10.2402 4.94654 10.2422 4.78634 10.3435C3.97694 10.6486 3.41266 11.3888 3.33301 12.2502C3.33301 13.7302 5.33301 14.8435 7.99967 14.8435C10.6663 14.8435 12.6663 13.7302 12.6663 12.2502C12.594 11.3814 12.0285 10.6316 11.213 10.3235Z" fill="inherit"/>
<path fill-rule="evenodd" clip-rule="evenodd" d="M7.49967 12.5435V9.66348C5.30427 9.39898 3.69469 7.47036 3.82718 5.26305C3.95968 3.05574 5.78839 1.3335 7.99967 1.3335C10.211 1.3335 12.0397 3.05574 12.1722 5.26305C12.3047 7.47036 10.6951 9.39898 8.49967 9.66348V12.5435C8.49967 12.8196 8.27582 13.0435 7.99967 13.0435C7.72353 13.0435 7.49967 12.8196 7.49967 12.5435ZM10.9492 4.29425C10.4542 3.10287 9.28977 2.32745 7.99968 2.33015C6.24493 2.33382 4.82334 3.75541 4.81968 5.51015C4.81698 6.80025 5.5924 7.96469 6.78378 8.45963C7.97515 8.95457 9.34741 8.68236 10.2596 7.77012C11.1719 6.85789 11.4441 5.48563 10.9492 4.29425Z" fill="inherit"/>
<path d="M6.39301 6.25015C6.66915 6.25015 6.89301 6.02629 6.89301 5.75015C6.89301 4.98432 7.51384 4.36348 8.27968 4.36348C8.55582 4.36348 8.77968 4.13963 8.77968 3.86348C8.77968 3.58734 8.55582 3.36348 8.27968 3.36348C7.64492 3.36525 7.03687 3.6191 6.58928 4.06919C6.1417 4.51927 5.89124 5.12873 5.89301 5.76348C5.89477 5.89433 5.94843 6.01911 6.0422 6.11038C6.13597 6.20165 6.26217 6.25193 6.39301 6.25015Z" fill="inherit"/>
</g>
</g>
</svg>
