<svg width="56" height="56" viewBox="0 0 56 56" fill="none" xmlns="http://www.w3.org/2000/svg">
<path d="M29.2647 40.3899C28.3498 39.7839 27.183 39.7062 26.1958 40.1854C25.2085 40.6646 24.5478 41.6296 24.4581 42.7233V42.8633C24.5975 44.4669 25.94 45.6977 27.5497 45.6977C29.1594 45.6977 30.5019 44.4669 30.6414 42.8633V42.7233C30.5641 41.7757 30.0568 40.9158 29.2647 40.3899Z" fill="#A2A2A2"/>
<path d="M15.8481 33.5999C15.1166 34.1509 14.9517 35.1816 15.4747 35.9333C16.0322 36.6538 17.0536 36.8172 17.8081 36.3066C23.499 32.0944 31.2738 32.0944 36.9647 36.3066C37.2614 36.5455 37.6341 36.6697 38.0147 36.6566C38.7102 36.6413 39.3286 36.2102 39.5834 35.5629C39.8383 34.9156 39.6798 34.1786 39.1814 33.6933C32.2713 28.5316 22.7992 28.4937 15.8481 33.5999Z" fill="#A2A2A2"/>
<path d="M51.9214 17.7566C44.9291 12.3494 36.3536 9.38987 27.5147 9.33325C18.6797 9.36783 10.1022 12.3118 3.10805 17.7099C2.56459 18.0751 2.27041 18.713 2.34559 19.3634C2.42077 20.0139 2.85273 20.5679 3.46517 20.7994C4.07761 21.031 4.76806 20.9013 5.25472 20.4633C11.6337 15.5412 19.4575 12.8594 27.5147 12.8333C35.5963 12.8675 43.4395 15.5748 49.8214 20.5333C50.1846 20.8229 50.6492 20.954 51.1102 20.8969C51.5712 20.8399 51.9898 20.5994 52.2714 20.2299C52.5573 19.8571 52.6813 19.385 52.6154 18.9198C52.5496 18.4546 52.2995 18.0354 51.9214 17.7566Z" fill="#A2A2A2"/>
<path d="M27.5147 19.5299C20.976 19.5338 14.6237 21.7087 9.45472 25.7133C8.68913 26.3003 8.54301 27.3962 9.12805 28.1633C9.46321 28.5983 9.97893 28.8561 10.528 28.8633C10.9241 28.8837 11.3164 28.7774 11.648 28.5599C21.0141 21.2977 34.1087 21.2977 43.4747 28.5599C44.2428 29.0877 45.2898 28.921 45.8559 28.1807C46.4221 27.4403 46.3087 26.3862 45.598 25.7833C40.4353 21.7423 34.0708 19.5415 27.5147 19.5299Z" fill="#A2A2A2"/>
<path d="M48.7776 48.0054L53.8413 42.9588C54.0529 42.7453 54.0529 42.3993 53.8413 42.1858C53.6335 41.9684 53.2903 41.9619 53.0745 42.1712L48.0109 47.2178L43.0123 42.1712C42.9098 42.0619 42.7672 42 42.618 42C42.4688 42 42.3263 42.0619 42.2238 42.1712C42.0362 42.3775 42.0362 42.6942 42.2238 42.9005L47.2224 47.9397L42.1587 52.979C41.9471 53.1925 41.9471 53.5385 42.1587 53.752C42.2594 53.856 42.3979 53.914 42.5421 53.9125C42.689 53.9245 42.8347 53.8773 42.9472 53.7812L48.0109 48.7346L53.0745 53.8395C53.1753 53.9435 53.3138 54.0015 53.4579 54C53.6019 54.0007 53.7401 53.9428 53.8413 53.8395C54.0529 53.626 54.0529 53.28 53.8413 53.0665L48.7776 48.0054Z" fill="#A2A2A2"/>
</svg>
