<svg width="56" height="56" viewBox="0 0 56 56" fill="none" xmlns="http://www.w3.org/2000/svg">
<path d="M27.9992 42.5736C29.4727 42.5736 30.826 43.1085 31.8889 44.0013L27.9992 49L24.1093 44.0013C25.1721 43.1085 26.5254 42.5736 27.9992 42.5736ZM9.03575 7L45.5036 44.868L42.5862 47.8974L31.9006 36.7988C30.674 36.3762 29.3624 36.1472 27.9992 36.1472C25.0529 36.1472 22.347 37.2161 20.2217 39.0009L17.6299 35.6671C20.2622 33.4571 23.5621 32.0705 27.1664 31.8843L21.8107 26.3233C18.8245 27.2003 16.0886 28.6962 13.7395 30.6689L11.1468 27.3361C13.351 25.4849 15.8434 23.9892 18.5432 22.9327L13.8301 18.0356C11.4723 19.201 9.26869 20.6482 7.25956 22.3353L4.66602 19.0031C6.5518 17.4195 8.58995 16.0237 10.754 14.8431L6.11832 10.0295L9.03575 7ZM33.1572 26.0478L28.4456 21.1574L27.999 21.1522C34.3832 21.1522 40.2464 23.4687 44.8518 27.3363L42.2586 30.6689C39.6418 28.4712 36.5451 26.8657 33.1572 26.0478ZM27.9992 10.4416C36.8385 10.4416 44.9563 13.6487 51.3327 19.0034L48.7385 22.3353C43.071 17.5761 35.8557 14.7258 27.9992 14.7258C26.1877 14.7258 24.4103 14.8774 22.6781 15.1689L19.179 11.5359C22.0061 10.8207 24.9599 10.4416 27.9992 10.4416Z" fill="#A2A2A2"/>
</svg>
